<svg width="482" height="482" viewBox="0 0 482 482" fill="none" xmlns="http://www.w3.org/2000/svg">
<path fill-rule="evenodd" clip-rule="evenodd" d="M265.134 2.64639C262.696 4.95939 261.635 7.78039 258.457 20.3964C256.379 28.6464 254.353 35.7714 253.956 36.2294C253.558 36.6884 246.391 38.7854 238.027 40.8894C220.627 45.2684 218 46.8664 218 53.0704C218 55.5284 218.696 57.5924 219.947 58.8434C221.974 60.8704 222.872 61.1684 242.408 66.2804L254.315 69.3964L258.599 85.8904C263.262 103.842 264.484 105.896 270.5 105.896C276.556 105.896 277.866 103.737 282.61 85.9344C285.005 76.9504 287.084 69.5124 287.232 69.4064C287.379 69.3014 294.679 67.3294 303.453 65.0264C312.227 62.7234 320.189 60.1304 321.146 59.2644C325.428 55.3894 323.787 47.2264 318.297 45.0894C316.759 44.4904 309.2 42.3604 301.5 40.3554C293.8 38.3504 287.364 36.5784 287.198 36.4174C287.031 36.2564 285.542 31.0114 283.889 24.7604C278.065 2.74839 278.175 3.0384 275.026 1.4094C270.811 -0.769605 268.419 -0.470606 265.134 2.64639ZM273.568 33.0174C274.938 38.1754 276.288 43.1414 276.568 44.0534C277.181 46.0554 281.973 48.0214 292 50.3844C296.125 51.3564 299.845 52.4614 300.266 52.8404C300.687 53.2184 296.429 54.6144 290.804 55.9424C284.614 57.4044 279.718 59.1544 278.404 60.3764C276.949 61.7294 275.308 65.9834 273.432 73.2624L270.632 84.1284L268.782 77.2624C264.717 62.1704 263.958 60.0934 262.254 59.3944C261.289 58.9994 256.027 57.4544 250.561 55.9624C245.095 54.4694 241.049 52.9844 241.57 52.6624C242.092 52.3394 245.439 51.3334 249.009 50.4254C252.579 49.5184 257.222 48.3264 259.326 47.7774C263.783 46.6134 264.746 44.8244 268.089 31.4964C269.285 26.7274 270.446 23.0094 270.669 23.2324C270.892 23.4554 272.197 27.8584 273.568 33.0174ZM125.42 29.7254C123.726 30.7894 121.835 32.9504 121.217 34.5284C120.599 36.1054 116.875 49.9964 112.942 65.3964C109.009 80.7964 105.275 93.8954 104.645 94.5064C104.015 95.1164 90.246 99.0374 74.046 103.219C55.818 107.924 43.541 111.598 41.836 112.859C39.311 114.726 37.619 114.896 21.54 114.896C5.333 114.896 3.848 115.048 2 116.896C0.018 118.878 0 120.229 0 265.896C0 411.563 0.018 412.914 2 414.896C3.86 416.756 5.333 416.896 23 416.896H42V435.825C42 451.699 42.254 455.007 43.571 456.325C44.789 457.542 47.379 457.896 55.071 457.896H65V467.896C65 476.563 65.267 478.163 67 479.896C68.987 481.883 70.333 481.896 273.5 481.896C476.667 481.896 478.013 481.883 480 479.896C481.982 477.914 482 476.563 482 331.051V184.206L479.897 182.301C478.195 180.759 475.909 180.331 467.897 180.052L458 179.709V169.957C458 156.333 458.959 156.896 435.757 156.896H417.172L416.836 135.646C416.505 114.703 416.459 114.313 413.694 108.682C412.15 105.539 408.911 101.227 406.494 99.1004C399.291 92.7594 394.97 91.8964 370.442 91.8964C344.715 91.8964 346 91.1754 346 105.619V114.896H284.314C223.818 114.896 222.587 114.857 220.48 112.878C218.991 111.478 209.557 108.59 189.709 103.459C173.966 99.3884 160.233 95.7874 159.191 95.4574C157.649 94.9674 156.037 89.9844 150.513 68.6264C141.613 34.2114 141.437 33.6554 138.616 31.0054C135.251 27.8444 129.33 27.2694 125.42 29.7254ZM147.457 103.098C148.351 105.21 148.752 105.336 180.5 113.475C194.8 117.141 207.049 120.433 207.72 120.791C208.391 121.149 195.791 124.806 179.72 128.919C158.991 134.223 149.919 136.977 148.5 138.396C147.079 139.817 144.334 148.882 139.019 169.712C134.068 189.114 131.286 198.414 130.791 197.212C130.381 196.213 127.527 185.496 124.449 173.396C116.698 142.922 115.193 138.058 113.212 137.082C112.27 136.617 98.569 132.914 82.765 128.852C66.96 124.79 54.36 121.187 54.765 120.846C55.169 120.504 68.325 116.956 84 112.962C100.739 108.696 113.189 105.017 114.17 104.047C115.139 103.088 118.203 93.1724 121.477 80.3964C124.578 68.2964 128.062 54.8224 129.219 50.4534L131.323 42.5104L139.03 71.9534C143.269 88.1474 147.061 102.162 147.457 103.098ZM394.329 105.26C398.491 106.999 402.632 111.91 403.956 116.677C405.027 120.535 405.524 362.896 404.46 362.896C404.163 362.896 402.026 361.884 399.71 360.646C395.853 358.585 393.926 358.369 376.75 358.068L358 357.74V230.818V103.896H374.532C386.233 103.896 392.018 104.295 394.329 105.26ZM42.182 129.396C43.816 130.771 45.767 131.896 46.518 131.896C47.268 131.896 48.109 132.263 48.386 132.711C48.663 133.16 40.589 141.818 30.445 151.951L12 170.376V148.636V126.896H25.606C38.659 126.896 39.332 126.997 42.182 129.396ZM267 127.647C267 128.061 209.625 185.773 139.5 255.896L12 383.393V356.398V329.402L69.747 271.649L127.494 213.896H131.824C137.646 213.896 141.232 210.345 142.951 202.878C144.191 197.491 144.759 196.848 175.718 165.779C206.233 135.155 207.388 134.122 212.517 132.892C215.428 132.193 219.091 130.575 220.655 129.295C223.436 127.02 223.989 126.967 245.25 126.932C257.212 126.912 267 127.234 267 127.647ZM199.5 265.896L60.503 404.896H36.251H12V402.647C12 400.993 48.17 364.228 148.749 263.647L285.497 126.896H311.997H338.497L199.5 265.896ZM104.817 147.379C105.146 147.709 84.397 168.996 58.708 194.686L12 241.393V214.402V187.41L37.559 161.837L63.119 136.263L83.668 141.522C94.971 144.414 104.488 147.05 104.817 147.379ZM238.769 297.627L131.503 404.896H105.252C90.813 404.896 79 404.559 79 404.147C79 403.736 138.962 343.435 212.25 270.145L345.5 136.892L345.767 163.625L346.034 190.359L238.769 297.627ZM167.536 156.86C158.768 165.64 151.444 172.673 151.259 172.488C151.074 172.303 152.336 166.51 154.062 159.615L157.202 147.078L168.851 144.082C175.258 142.434 181.17 141.043 181.988 140.991C182.807 140.939 176.303 148.08 167.536 156.86ZM114.926 184.369L120.051 204.343L66.025 258.368L12 312.394V285.399V258.404L60.223 210.173C90.942 179.449 108.692 162.387 109.123 163.169C109.496 163.844 112.107 173.384 114.926 184.369ZM446 307.396V445.896H250H54V431.41V416.924L224.25 416.66L394.5 416.396L399.149 414.247C405.08 411.505 410.986 405.599 414.077 399.319L416.5 394.396L416.771 281.646L417.042 168.896H431.521H446V307.396ZM470 330.896V469.896H273.45H76.9L77.2 464.146L77.5 458.396L266.787 457.896C433.588 457.455 456.186 457.218 457.021 455.896C457.606 454.971 457.975 404.36 457.985 323.813C457.993 251.992 458.3 192.929 458.667 192.563C459.033 192.196 461.733 191.896 464.667 191.896H470V330.896ZM274.269 333.127L202.505 404.896H175.505H148.504L247.002 306.393L345.5 207.891L345.767 234.624L346.034 261.357L274.269 333.127ZM309.772 368.624L273.51 404.896H246.508H219.506L282.503 341.892L345.5 278.888L345.767 305.62L346.034 332.352L309.772 368.624ZM348.441 368.48C349.904 369.547 353.972 369.898 364.941 369.904L379.5 369.911L361.943 387.404L344.386 404.896H317.45H290.514L318.007 377.381L345.5 349.866L346 358.464C346.407 365.462 346.861 367.327 348.441 368.48ZM399.51 375.206C407.429 383.125 405.83 396.107 396.2 402.096C392.827 404.193 391.129 404.424 377 404.713L361.5 405.03L377.989 388.463C387.057 379.351 394.865 371.896 395.339 371.896C395.812 371.896 397.69 373.386 399.51 375.206Z" fill="black"/>
</svg>
