<svg width="423" height="468" viewBox="0 0 423 468" fill="none" xmlns="http://www.w3.org/2000/svg">
<path fill-rule="evenodd" clip-rule="evenodd" d="M68.3062 1.0821C55.4722 5.2791 46.4452 16.5041 45.2432 29.7641C44.7202 35.5321 44.7092 35.5491 42.1002 34.5421C37.4492 32.7491 26.9562 33.3011 20.7202 35.6681C13.7332 38.3201 6.39017 45.1501 2.94517 52.2021C-0.608835 59.4771 -0.993835 71.0631 2.04917 79.1711C4.70417 86.2441 12.0462 94.1271 19.1832 97.5671L23.8852 99.8331L20.7892 105.927C13.0492 121.156 17.5162 139.124 31.3582 148.438C37.1592 152.342 42.5252 153.902 50.1512 153.902C59.1732 153.902 65.4612 151.28 72.2322 144.695L78.1202 138.97L80.2512 141.852C83.6232 146.412 91.9222 151.504 98.8452 153.261C110.793 156.292 123.47 151.887 131.706 141.843C139.962 131.773 141.378 116.694 135.146 105.189C133.41 101.983 132.1 99.2861 132.236 99.1931C132.371 99.1011 134.697 97.9751 137.405 96.6911C143.918 93.6021 149.582 87.7871 152.834 80.8501C155.085 76.0481 155.481 73.8541 155.477 66.2021C155.471 55.5921 153.562 50.4561 146.963 43.2971C140.664 36.4631 133.261 33.2131 123.982 33.2071C119.857 33.2041 115.306 33.5331 113.868 33.9371C111.321 34.6531 111.237 34.5291 110.597 29.0801C109.252 17.6431 101.514 7.0431 91.1582 2.4511C85.3202 -0.137903 74.0922 -0.809905 68.3062 1.0821ZM315.199 9.8691C300.433 12.1791 289.683 24.8981 289.545 40.2211C289.372 59.5081 307.016 74.2991 325.92 70.7141C345.421 67.0151 356.333 48.5781 350.272 29.5671C347.943 22.2631 339.49 13.6601 332.472 11.4521C325.594 9.2891 321.377 8.9021 315.199 9.8691ZM86.9382 16.6791C91.1882 18.8481 94.0542 22.3691 95.8292 27.6011C97.5582 32.6981 97.2332 36.8721 94.7252 41.7831C91.8262 47.4581 78.6732 67.6851 77.8742 67.6951C77.5402 67.6991 73.3182 61.5971 68.4942 54.1351C59.0282 39.4961 57.6402 35.2981 59.9512 28.2951C61.3992 23.9091 65.2952 19.0931 69.4392 16.5651C73.5692 14.0471 81.8832 14.1011 86.9382 16.6791ZM329.745 26.3741C343.561 36.6901 337.409 57.1311 320.487 57.1311C313.858 57.1311 308.821 54.0661 306.053 48.3491C301.612 39.1741 305.14 29.4291 314.482 25.0701C318.462 23.2121 326.421 23.8921 329.745 26.3741ZM40.8692 50.5091C43.0982 51.5291 47.6302 56.3231 54.1192 64.5231C59.5442 71.3781 63.9822 77.2601 63.9812 77.5941C63.9812 78.6881 35.1042 86.0311 31.3562 85.8901C26.4212 85.7041 21.2242 82.8461 17.5352 78.2891C14.7602 74.8601 14.4822 73.8571 14.4822 67.2861C14.4822 61.2491 14.8872 59.4641 16.9362 56.4741C22.3772 48.5331 31.5592 46.2441 40.8692 50.5091ZM130.482 49.5981C132.682 50.6161 135.691 52.7441 137.168 54.3261C146.906 64.7511 141.328 82.3671 127.291 85.5211C123.824 86.3001 121.027 85.8961 110.311 83.0701C103.255 81.2091 96.2442 79.4081 94.7322 79.0691C93.2202 78.7301 92.0032 77.9461 92.0292 77.3271C92.0552 76.7081 96.4422 70.8021 101.779 64.2021C114.809 48.0881 120.722 45.0791 130.482 49.5981ZM69.4802 102.452C68.0782 127.626 67.7672 129.181 63.1682 134.041C59.2722 138.159 55.2782 139.933 49.9002 139.933C33.4542 139.933 24.8312 119.332 36.3462 107.552C38.7552 105.087 43.4352 102.705 54.0512 98.5401C61.9882 95.4271 68.8292 92.8391 69.2522 92.7901C69.6762 92.7421 69.7782 97.0901 69.4802 102.452ZM101.948 98.6341C117.986 104.713 122.112 107.756 124.045 114.934C127.523 127.854 119.039 139.614 106.192 139.68C98.1562 139.721 90.0192 133.525 88.1032 125.907C86.8122 120.771 85.6382 92.4061 86.7342 92.8471C87.2202 93.0421 94.0662 95.6461 101.948 98.6341ZM229.982 105.662C205.137 110.298 186.401 130.615 184.325 155.172C183.772 161.709 183.924 162.644 185.847 164.567C188.582 167.302 194.029 167.412 196.411 164.781C197.465 163.616 198.506 160.019 199.056 155.643C200.648 142.959 207.155 132.617 217.809 125.838C237.862 113.078 264.81 121.34 275.289 143.461C278.186 149.578 278.482 151.086 278.482 159.754C278.482 168.783 278.276 169.723 274.716 176.925C270.369 185.721 263.995 192.075 255.174 196.407L249.482 199.202L182.767 199.702C109.419 200.252 113.704 199.844 112.393 206.399C111.879 208.966 112.247 210.058 114.325 212.136L116.891 214.702L180.687 214.687C251.71 214.671 251.509 214.687 264.273 207.98C277.185 201.195 287.351 188.609 291.556 174.202C294.003 165.819 293.795 152.182 291.09 143.63C285.971 127.446 271.202 112.634 255.274 107.712C247.907 105.435 236.259 104.491 229.982 105.662ZM356.258 145.146C333.056 150.438 314.729 172.077 313.743 195.347C313.427 202.792 315.364 205.702 320.637 205.702C325.717 205.702 327.558 203.158 328.302 195.111C329.593 181.147 338.426 168.68 351.685 162.107C356.952 159.496 358.444 159.232 368.003 159.217C377.831 159.203 378.952 159.413 385.014 162.397C393.432 166.541 400.443 173.537 404.362 181.702C407.244 187.707 407.482 189.001 407.482 198.702C407.482 208.001 407.175 209.856 404.802 214.92C401.676 221.59 394.524 229.611 388.626 233.06C378.444 239.015 387.68 238.702 222.255 238.702H70.8912L68.4372 241.157C65.4922 244.101 65.2942 247.631 67.8942 250.841L69.8052 253.202L219.644 253.476C322.016 253.663 371.699 253.412 376.482 252.684C402.267 248.757 422.982 224.861 422.982 199.041C422.982 180.814 412.984 162.328 397.883 152.639C386.06 145.051 369.637 142.096 356.258 145.146ZM164.637 277.531C162.4 280.002 162.499 285.955 164.811 288.047C166.476 289.554 172.941 289.702 237.127 289.702C283.658 289.702 309.616 290.072 313.502 290.79C322.232 292.404 329.821 296.681 336.22 303.592C354.474 323.309 348.496 353.983 324.003 366.285C315.976 370.317 306.73 371.421 298.337 369.35C280.747 365.009 269.015 351.775 267.025 334.032C266.097 325.756 265.053 324.066 260.285 323.113C255.63 322.182 251.977 326.058 251.997 331.907C252.053 348.153 262.338 366.124 277.418 376.325C288.538 383.846 306.664 386.759 320.279 383.213C341.186 377.767 358.028 358.982 360.983 337.813C364.756 310.781 346.855 284.123 320.338 277.286C315.001 275.91 304.471 275.702 240.243 275.702C169.87 275.702 166.212 275.79 164.637 277.531ZM82.7622 326.744C71.4772 328.618 60.7862 336.413 57.4232 345.217C55.7472 349.605 55.7852 359.061 57.5002 364.452C58.1282 366.427 57.8652 366.703 55.3492 366.712C51.7502 366.724 43.5102 370.524 39.2122 374.152C37.4142 375.671 34.7142 379.003 33.2122 381.557C30.9382 385.426 30.4832 387.371 30.4892 393.202C30.4942 399.062 30.9732 401.065 33.4252 405.503C38.6142 414.89 49.7222 420.831 62.5312 421.07L69.5812 421.202L69.7022 426.336C70.0662 441.76 86.4032 453.708 105.457 452.485C117.543 451.71 128.496 445.365 133.07 436.492C134.121 434.451 134.982 432.089 134.982 431.242C134.982 429.343 134.937 429.342 141.743 431.321C154.738 435.099 170.662 431.027 179.391 421.696C187.705 412.808 188.641 401.863 181.985 391.368C179.415 387.315 173.008 381.608 169.667 380.395C168.914 380.122 169.443 378.915 171.118 377.084C175.768 372 177.415 367.714 177.411 360.702C177.407 352.831 175.132 347.939 168.735 342.042C157.331 331.53 134.374 330.535 122.556 340.041L119.629 342.395L116.519 338.299C110.21 329.991 94.8562 324.735 82.7622 326.744ZM100.062 344.026C102.479 345.304 105.28 347.759 106.286 349.483C108.048 352.499 108.051 353.037 106.377 363.909C105.421 370.12 104.352 375.543 104.002 375.961C103.222 376.89 76.4142 365.391 73.6722 362.952C66.7792 356.818 68.9822 347.945 78.4822 343.583C84.4262 340.853 94.4512 341.059 100.062 344.026ZM150.652 348.849C156.466 350.313 162.982 356.257 162.982 360.097C162.982 361.584 162.318 364.086 161.506 365.655C158.887 370.72 154.448 372.487 136.622 375.561C127.47 377.138 119.982 378.152 119.982 377.814C119.982 377.475 121.319 372.474 122.953 366.7C125.502 357.692 126.435 355.752 129.524 353.035C135.064 348.161 142.258 346.735 150.652 348.849ZM80.3232 385.127C87.3852 387.559 93.3852 389.772 93.6572 390.043C94.3242 390.711 76.8172 402.419 71.6292 404.775C60.1342 409.995 43.9822 403.868 43.9822 394.287C43.9822 389.723 48.7572 384.228 54.4822 382.204C61.2942 379.796 66.5812 380.394 80.3232 385.127ZM163.717 394.557C168.654 397.087 171.077 400.331 171.197 404.571C171.405 411.873 163.635 417.101 152.482 417.163C142.351 417.219 139.258 415.349 130.737 404.013C126.867 398.864 123.893 394.458 124.129 394.222C124.959 393.392 145.565 391.868 152.482 392.125C157.29 392.304 160.808 393.066 163.717 394.557ZM113.812 410.796C121.637 424.669 122.015 426.321 118.362 430.662C112.303 437.863 100.656 439.836 91.4092 435.228C83.3322 431.203 80.5322 423.535 85.2322 418.315C88.1132 415.115 106.067 399.702 106.914 399.702C107.266 399.702 110.37 404.694 113.812 410.796ZM251.982 407.361C242.71 410.584 234.527 419.111 231.982 428.203C231.241 430.847 230.916 435.527 231.199 439.465C232.008 450.741 237.856 459.528 247.8 464.412C252.665 466.801 254.704 467.202 261.982 467.202C269.26 467.202 271.299 466.801 276.164 464.412C295.289 455.02 299.441 428.759 284.074 414.385C275.633 406.49 262.66 403.65 251.982 407.361ZM269.382 421.096C277.701 424.572 281.409 436.17 276.759 444.172C275.49 446.356 272.883 449.208 270.967 450.51C268.036 452.501 266.521 452.818 261.439 452.505C251.181 451.874 245.561 446.014 245.654 436.046C245.769 423.82 257.784 416.25 269.382 421.096Z" fill="black"/>
</svg>
