<svg width="455" height="456" viewBox="0 0 455 456" fill="none" xmlns="http://www.w3.org/2000/svg">
<path fill-rule="evenodd" clip-rule="evenodd" d="M33 0.851467C18.39 3.30547 6.877 13.2635 2.035 27.6365C-0.0299993 33.7655 -0.0589987 35.0205 0.218001 104.575L0.500001 175.285L3.768 181.921C7.907 190.328 16.616 198.636 24.715 201.905L30.5 204.24L98.981 204.523C143.639 204.708 169.146 204.445 172.304 203.768C187.604 200.487 199.755 188.307 203.048 172.949C203.7 169.912 203.964 143.523 203.783 99.7215C203.466 23.3835 203.88 27.9875 196.345 16.9815C192.017 10.6605 185.104 5.38347 177.275 2.42347C171.566 0.265466 170.738 0.238469 105 0.0844688C68.134 -0.00253116 36.049 0.339467 33 0.851467ZM273 1.09747C257.832 5.32947 246.931 17.0485 244.031 32.2405C243.221 36.4845 242.976 58.0005 243.194 105.74C243.538 180.97 243.13 176.508 250.655 187.499C254.987 193.825 261.903 199.103 269.725 202.05C275.4 204.187 276.61 204.231 339.5 204.545C380.868 204.752 406.329 204.489 411.5 203.802C426.408 201.821 437.216 194.147 443.705 180.932L446.5 175.24V102.219V29.1985L443.232 22.5605C439.093 14.1525 430.385 5.84447 422.285 2.57547L416.5 0.240467L347 0.0414658C293.787 -0.110534 276.445 0.136465 273 1.09747ZM172.5 23.6305C177.128 25.7665 180.417 29.0525 181.933 33.0555C183.415 36.9665 183.415 167.514 181.933 171.425C180.417 175.428 177.128 178.714 172.5 180.85C168.739 182.586 164.555 182.696 102.5 182.696C28.269 182.696 31.349 182.996 25.384 175.177L22.5 171.397L22.208 104.818C22.047 68.2005 22.177 36.7915 22.497 35.0195C23.276 30.7125 27.509 25.8685 32.459 23.6205C36.249 21.8985 40.603 21.7845 102.5 21.7845C164.555 21.7845 168.739 21.8945 172.5 23.6305ZM417.667 24.9015C419.878 26.3645 422.545 29.2895 423.594 31.4015C425.412 35.0625 425.5 38.3475 425.5 102.24V169.24L423.197 173.257C421.93 175.467 419.263 178.392 417.271 179.757L413.648 182.24L347.574 182.544C303.333 182.748 280.306 182.501 277.885 181.795C272.987 180.366 269.336 177.319 266.972 172.685C265.068 168.953 265 166.535 265 102.748C265 45.5515 265.207 36.1815 266.538 32.9945C268.608 28.0405 270.739 25.8095 275.5 23.6105C279.282 21.8635 283.163 21.7755 346.574 22.0015L413.647 22.2405L417.667 24.9015ZM330.5 236.781C314.727 239.232 296.382 246.332 283.872 254.827C270.579 263.854 256.756 279.147 248.699 293.74C243.958 302.326 238.43 319.189 236.932 329.635C235.321 340.862 236.284 361.926 238.856 371.74C243.791 390.57 252.618 406.844 265.179 420.272C311.904 470.221 391.971 466.029 433.075 411.48C440.879 401.123 448.344 385.707 451.604 373.217C454.803 360.958 455.86 342.048 454.041 329.611C450.804 307.472 440.702 286.844 425.053 270.421C409.028 253.603 390.153 242.985 367.639 238.124C358.93 236.244 338.67 235.511 330.5 236.781ZM28.5 245.126C19.28 248.072 10.273 255.185 5.544 263.256C0.0619998 272.61 8.86229e-07 273.531 8.86229e-07 345.74C8.86229e-07 419.426 -0.0209985 419.155 6.402 429.74C8.423 433.072 12.16 437.099 15.88 439.954C26.957 448.458 23.864 448.132 97 448.515C166.665 448.88 173.476 448.527 182.542 444.088C192.945 438.994 201.71 427.173 203.911 415.266C205.412 407.145 205.407 284.316 203.906 276.174C201.554 263.424 193.814 253.236 182.098 247.467L175.544 244.24L104.022 244.044C48.274 243.891 31.618 244.129 28.5 245.126ZM362.792 259.328C389.381 264.807 412.091 282.144 424.245 306.24C429.853 317.359 432.224 327.314 432.757 341.971C433.183 353.71 432.939 357.07 431.077 365.129C423.31 398.74 397.081 424.249 362.5 431.821C353.666 433.756 336.046 433.523 326.575 431.347C292.791 423.583 266.75 397.311 259.417 363.593C258.491 359.335 257.819 351.596 257.82 345.206C257.829 303.527 286.577 268.18 327.624 259.378C336.879 257.393 353.288 257.37 362.792 259.328ZM173.698 266.989C175.457 267.951 178.157 270.391 179.698 272.411L182.5 276.083L182.792 343.162C182.953 380.055 182.823 411.689 182.502 413.461C181.724 417.768 177.491 422.612 172.541 424.86C168.751 426.582 164.397 426.696 102.5 426.696C40.445 426.696 36.261 426.586 32.5 424.85C27.872 422.714 24.583 419.428 23.067 415.425C22.35 413.533 22 390.647 22 345.635C22 280.889 22.066 278.531 23.977 274.784C26.219 270.391 29.971 267.376 35.037 265.897C37.244 265.252 62.431 264.95 104.5 265.063C165.255 265.226 170.754 265.379 173.698 266.989Z" fill="black"/>
</svg>
