<svg width="512" height="512" viewBox="0 0 512 512" fill="none" xmlns="http://www.w3.org/2000/svg">
<path fill-rule="evenodd" clip-rule="evenodd" d="M361.197 2.24848C358.77 4.33648 358.431 5.48448 357.705 14.0805C355.253 43.1455 341.929 67.3005 322.806 77.3495C314.667 81.6265 302.616 84.9355 295.179 84.9355C285.808 84.9355 281.863 87.6125 281.806 94.0115C281.754 99.8185 284.504 101.46 296.346 102.693C304.821 103.576 319.661 107.489 321.497 109.325C322.569 110.397 316.64 118.87 311.727 123.288C304.907 129.419 298.058 133.208 287.253 136.827C255.914 147.325 215.368 140.175 197.418 120.986C193.197 116.473 191.19 112.968 187 102.788C185.258 98.5545 179.37 94.6995 173.835 94.1675C169.517 93.7525 164.241 95.3815 126.127 108.897C102.558 117.255 81.6217 125.219 79.6027 126.595C77.5837 127.971 74.7977 130.812 73.4107 132.908C64.7107 146.054 2.16169 250.163 0.99769 253.435C-0.73431 258.304 -0.138309 267.27 2.22069 271.833C8.19769 283.39 26.0087 294.093 54.6957 303.366C68.3007 307.764 82.5967 311.222 96.2737 313.423C101.774 314.308 107.287 315.244 108.524 315.503L110.774 315.973V394.638C110.774 472.364 110.799 473.355 112.862 477.617C122.568 497.666 170.644 509.856 246.774 511.573C330.43 513.459 386.994 501.196 398.179 478.749L400.774 473.542V393.912V314.281L409.024 313.022C421.166 311.169 450.709 303.558 465.728 298.413C479.746 293.612 493.588 287.088 500.572 281.99C505.937 278.074 510.488 271.026 511.346 265.305C512.785 255.707 512.481 255.093 478.635 199.279C436.349 129.544 436.41 129.639 432.018 126.653C429.959 125.253 422.762 122.161 416.024 119.781C409.286 117.402 403.774 115.208 403.774 114.906C403.774 113.76 414.525 107.911 420.249 105.942C423.535 104.813 431.149 103.29 437.17 102.559C449.392 101.076 451.774 99.5985 451.774 93.4995C451.774 87.8275 448.361 85.7725 437.404 84.8475C426.387 83.9185 414.889 80.3575 407.446 75.5705C389.947 64.3155 378.42 42.3385 375.822 15.2765C375.338 10.2395 374.444 5.18748 373.835 4.04948C371.392 -0.515518 365.403 -1.36952 361.197 2.24848ZM368.614 55.3705C372.373 65.7635 386.414 82.2605 397.68 89.5205C401.022 91.6735 403.757 93.6605 403.758 93.9355C403.758 94.2105 402.046 95.4125 399.954 96.6075C388.729 103.015 377.505 115.13 370.719 128.163L366.696 135.891L362.787 128.339C357.311 117.756 349.237 108.187 339.756 101.043C335.298 97.6835 331.229 94.9355 330.712 94.9355C328.479 94.9355 330.114 92.9265 334.382 90.4255C345.04 84.1795 361.598 65.0575 364.831 55.2635C366.223 51.0455 367.059 51.0695 368.614 55.3705ZM175.179 118.572C179.429 127.522 190.55 139.25 200.098 144.852C215.746 154.033 233.637 158.379 255.774 158.379C277.935 158.379 296.032 153.976 311.37 144.852C318.841 140.407 328.79 131.143 332.795 124.902L335.97 119.954L339.936 124.695C348.83 135.326 355.833 154.325 357.617 172.663C358.626 183.03 360.257 186.443 364.667 187.412C368.103 188.166 373.16 185.952 374.236 183.222C374.623 182.239 375.336 177.385 375.82 172.435C377.009 160.289 379.911 149.526 384.662 139.651C386.836 135.132 389.027 130.853 389.53 130.142C390.792 128.359 420.066 138.723 423.265 142.085C427.42 146.452 494.774 258.643 494.774 261.197C494.774 265.351 491.104 268.667 480.79 273.83C465.009 281.73 427.344 292.975 405.024 296.449L400.774 297.111V275.079C400.774 253.638 400.714 252.979 398.524 250.546C395.101 246.741 389.943 246.675 386.229 250.39L383.774 252.844V361.988V471.133L380.798 473.912C366.119 487.624 310.47 496.169 246.274 494.568C218.231 493.868 203.521 492.768 183.774 489.892C159.673 486.381 138.99 480.045 131.524 473.884L127.774 470.789V361.817V252.844L125.319 250.39C121.834 246.904 116.65 246.754 113.274 250.04C111.418 251.846 111.238 253.666 110.774 275.289L110.274 298.591L99.2737 296.714C57.1937 289.529 16.7737 272.282 16.7737 261.512C16.7737 259.621 27.8797 240.405 51.4107 201.582C70.4607 170.151 87.0477 143.383 88.2717 142.097C89.8167 140.472 102.673 135.381 130.385 125.419C152.324 117.533 170.562 111.047 170.913 111.008C171.264 110.968 173.184 114.372 175.179 118.572ZM275.799 172.91C273.612 175.097 273.446 175.735 271.866 188.027C269.015 210.219 259.413 226.081 244.365 233.46C237.13 237.008 229.502 238.935 222.693 238.935C220.129 238.935 217.986 239.709 216.13 241.305C210.024 246.557 214.201 255.935 222.646 255.935C249.046 255.935 267.801 275.288 271.846 306.704C272.465 311.506 273.163 316.459 273.398 317.71C274.537 323.779 282.694 326.106 287.163 321.637C288.991 319.809 289.605 317.76 290.16 311.632C293.25 277.528 312.568 255.935 339.987 255.935C344.802 255.935 349.774 251.616 349.774 247.435C349.774 243.254 344.802 238.935 339.987 238.935C312.627 238.935 293.244 217.269 290.16 183.238C289.605 177.11 288.991 175.061 287.163 173.233C284.222 170.292 278.578 170.131 275.799 172.91ZM293.473 235.94C296.333 239.049 300.535 242.884 302.812 244.461L306.952 247.33L304.113 249.301C298.394 253.272 288.067 264.598 284.685 270.611L281.211 276.787L278.242 271.116C274.915 264.759 264.424 253.118 259.002 249.767L255.443 247.567L257.858 246.08C262.746 243.07 275.361 229.266 278.223 223.793L281.173 218.155L284.723 224.222C286.676 227.558 290.614 232.832 293.473 235.94ZM318.956 326.435L315.774 329.113V341.069C315.774 352.431 315.896 353.148 318.229 355.48C322.913 360.165 330.723 357.969 332.344 351.513C332.685 350.152 332.809 344.527 332.619 339.013C332.235 327.86 331.061 325.542 325.203 324.371C322.789 323.888 321.463 324.326 318.956 326.435ZM287.774 358.641C281.739 360.847 279.704 368.642 284.088 372.761C286.194 374.738 287.465 374.935 298.154 374.935C304.617 374.935 310.714 374.502 311.703 373.973C312.691 373.444 314.066 371.644 314.758 369.973C316.52 365.719 314.54 361.153 310.134 359.312C306.896 357.959 290.948 357.481 287.774 358.641ZM338.131 358.872C332.892 361.119 331.269 367.752 334.847 372.3C336.885 374.892 337.121 374.935 349.236 374.935C363.267 374.935 365.417 374.049 366.407 367.86C366.867 364.984 366.49 363.716 364.48 361.379C362.039 358.541 361.728 358.468 351.127 358.214C345.158 358.07 339.31 358.367 338.131 358.872ZM322.044 375.712C320.817 375.908 318.905 377.224 317.794 378.637C316.029 380.881 315.774 382.68 315.774 392.896C315.774 403.753 315.934 404.731 318.024 406.612C319.262 407.726 321.087 408.925 322.08 409.276C324.88 410.267 330.657 407.374 331.78 404.418C333.353 400.282 333.023 383.316 331.304 379.994C329.745 376.978 325.732 375.122 322.044 375.712Z" fill="black"/>
</svg>
