<svg width="512" height="512" viewBox="0 0 512 512" fill="none" xmlns="http://www.w3.org/2000/svg">
<path fill-rule="evenodd" clip-rule="evenodd" d="M45.9011 1.22067C41.9741 3.39667 40.8651 6.63367 40.8261 16.0277C40.7861 25.8457 41.9471 29.3367 45.9361 31.3997C51.1131 34.0767 57.3781 32.2207 59.5961 27.3527C61.1431 23.9587 61.1431 8.69067 59.5961 5.29667C57.4071 0.49067 50.7771 -1.48233 45.9011 1.22067ZM454.097 9.23667C451.405 11.5497 451.277 12.0737 450.953 22.1227C450.617 32.5397 450.632 32.6147 453.601 35.9377C456.09 38.7237 457.286 39.2797 460.791 39.2797C464.271 39.2797 465.495 38.7197 467.893 36.0357C470.637 32.9657 470.791 32.3137 470.791 23.7597C470.791 10.8697 468.312 6.82467 460.413 6.82467C458.145 6.82467 455.909 7.67867 454.097 9.23667ZM4.90109 42.2207C-1.80091 45.9347 -1.58091 56.5117 5.26309 59.6297C8.65709 61.1767 23.9251 61.1767 27.3191 59.6297C30.1851 58.3237 32.7911 54.1307 32.7911 50.8247C32.7911 47.5187 30.1851 43.3257 27.3191 42.0197C23.7501 40.3937 7.94109 40.5347 4.90109 42.2207ZM73.9011 42.2207C67.1991 45.9347 67.4191 56.5117 74.2631 59.6297C77.6571 61.1767 92.9251 61.1767 96.3191 59.6297C99.1851 58.3237 101.791 54.1307 101.791 50.8247C101.791 47.5187 99.1851 43.3257 96.3191 42.0197C92.7501 40.3937 76.9411 40.5347 73.9011 42.2207ZM413.285 50.0767C411.543 51.5747 410.483 53.7017 410.117 56.4347C409.638 60.0017 409.964 60.9867 412.596 63.9327L415.627 67.3247H426.291H436.955L439.873 64.0587C443.125 60.4197 443.533 57.1597 441.281 52.8047C439.056 48.5017 436.966 47.8247 425.913 47.8247C416.971 47.8247 415.623 48.0647 413.285 50.0767ZM482.285 50.0767C480.543 51.5747 479.483 53.7017 479.117 56.4347C478.638 60.0017 478.964 60.9867 481.596 63.9327L484.627 67.3247H495.291H505.955L508.873 64.0587C512.125 60.4197 512.533 57.1597 510.281 52.8047C508.056 48.5017 505.966 47.8247 494.913 47.8247C485.971 47.8247 484.623 48.0647 482.285 50.0767ZM48.0751 69.5517C46.8561 69.7737 44.7191 71.3097 43.3251 72.9667C41.0291 75.6947 40.7911 76.8137 40.7911 84.8547C40.7911 94.8557 41.9421 98.3347 45.9361 100.4C51.1131 103.077 57.3781 101.221 59.5961 96.3527C60.2531 94.9107 60.7911 89.7087 60.7911 84.7937C60.7911 76.4177 60.6181 75.6727 58.0411 72.9367C55.2191 69.9417 51.9791 68.8407 48.0751 69.5517ZM142.291 76.9787C134.071 78.5397 121.511 85.2197 114.554 91.7307C102.527 102.985 96.3651 117.267 96.3901 133.825C96.4121 148.211 100.282 159.211 109.154 170.104L113.533 175.48L108.218 180.165C104.651 183.31 101.821 187.05 99.6101 191.54C96.7571 197.337 96.3201 199.237 96.3401 205.777C96.3581 211.887 96.8901 214.468 99.1341 219.322C100.659 222.62 102.859 226.333 104.023 227.572L106.14 229.825L104.031 232.075C100.853 235.467 96.9641 244.579 96.2661 250.269C95.7101 254.804 96.6031 261.566 98.3641 266.155C98.9421 267.66 97.7731 267.825 86.5331 267.825C72.2721 267.825 69.6981 268.898 67.8311 275.62C66.5011 280.409 66.4771 331.154 67.8021 335.925C69.3351 341.444 71.9231 343.175 79.3481 343.648C83.2331 343.895 85.7951 344.508 85.8001 345.191C85.8051 345.815 91.8761 382.061 99.2921 425.739C107.787 475.771 113.352 506.033 114.335 507.533C115.194 508.843 117.026 510.344 118.408 510.87C121.812 512.164 389.77 512.164 393.174 510.87C394.556 510.344 396.388 508.843 397.247 507.533C398.23 506.033 403.795 475.771 412.29 425.739C419.706 382.061 425.777 345.815 425.782 345.191C425.787 344.508 428.349 343.895 432.234 343.648C439.659 343.175 442.247 341.444 443.78 335.925C445.105 331.154 445.081 280.409 443.751 275.62C443.185 273.583 441.552 270.996 440.122 269.87C437.721 267.982 436.14 267.825 419.534 267.825H401.547L403.171 265.575C411.644 253.839 415.212 243.228 415.192 229.825C415.17 215.439 411.3 204.439 402.428 193.546L398.049 188.17L403.559 183.312C414.996 173.229 418.567 157.565 412.448 144.328C410.923 141.03 408.723 137.317 407.559 136.078L405.442 133.825L407.559 131.572C408.723 130.333 410.923 126.62 412.448 123.322C418.31 110.641 415.129 95.0917 404.67 85.3087C401.997 82.8077 397.667 79.7627 395.05 78.5427L390.291 76.3247L268.791 76.1767C195.604 76.0877 145.303 76.4067 142.291 76.9787ZM454.191 79.2247C450.797 82.6187 450.791 82.6427 450.791 92.2087C450.791 101.37 450.919 101.937 453.689 105.036C456.087 107.72 457.311 108.28 460.791 108.28C464.271 108.28 465.495 107.72 467.893 105.036C470.639 101.963 470.791 101.318 470.791 92.7137C470.791 82.7667 469.383 78.8707 465.079 76.9097C460.86 74.9877 457.771 75.6447 454.191 79.2247ZM387.72 97.5767C392.861 100.198 395.176 103.963 395.176 109.703C395.176 115.122 393.281 118.802 389.072 121.561C386.551 123.213 379.101 123.357 271.999 123.825L157.617 124.325L155.204 127.131C151.931 130.936 151.931 136.714 155.204 140.519L157.617 143.325L271.999 143.825C379.101 144.293 386.551 144.437 389.072 146.089C393.281 148.848 395.176 152.528 395.176 157.947C395.176 163.687 392.861 167.452 387.72 170.073C384.513 171.709 376.667 171.822 266.509 171.823C150.1 171.825 148.656 171.801 142.592 169.758C131.223 165.928 124.673 160.012 119.418 148.825C116.763 143.173 116.365 141.216 116.365 133.825C116.365 126.434 116.763 124.477 119.418 118.825C124.624 107.743 131.85 101.193 142.7 97.7207C147.937 96.0457 155.769 95.9287 266.291 95.8797C376.719 95.8307 384.511 95.9397 387.72 97.5767ZM367.859 193.413C382.111 197.581 391.854 208.489 394.828 223.608C397.619 237.793 390.608 253.654 378.013 261.65C367.809 268.129 374.365 267.825 244.859 267.823C134.905 267.822 127.069 267.709 123.862 266.073C118.721 263.452 116.406 259.687 116.406 253.947C116.406 248.528 118.301 244.848 122.51 242.089C125.031 240.437 132.481 240.293 239.583 239.825L353.965 239.325L356.378 236.519C359.651 232.714 359.651 226.936 356.378 223.131L353.965 220.325L239.583 219.825C132.481 219.357 125.031 219.213 122.51 217.561C118.301 214.802 116.406 211.122 116.406 205.703C116.406 199.963 118.721 196.198 123.862 193.577C127.069 191.941 134.905 191.828 244.859 191.827C349.325 191.825 363.033 192.002 367.859 193.413ZM424.791 305.825V323.825H361.191H297.591L294.191 327.225C291.741 329.675 290.791 331.519 290.791 333.825C290.791 336.131 291.741 337.975 294.191 340.425L297.591 343.825H351.691C381.446 343.825 405.791 343.963 405.791 344.131C405.791 344.726 381.761 486.367 381.201 489.075L380.632 491.825H255.791H130.95L130.381 489.075C129.821 486.367 105.791 344.726 105.791 344.131C105.791 343.963 129.845 343.825 159.244 343.825C198.557 343.825 213.391 343.509 215.319 342.63C218.185 341.324 220.791 337.131 220.791 333.825C220.791 330.519 218.185 326.326 215.319 325.02C213.375 324.134 196.422 323.825 149.744 323.825H86.7911V305.825V287.825H255.791H424.791V305.825ZM250.901 325.221C245.001 328.491 244.218 335.452 249.191 340.425C254.182 345.416 261.307 344.596 264.366 338.68C269.032 329.656 259.711 320.338 250.901 325.221Z" fill="black"/>
</svg>
