<svg width="322" height="383" viewBox="0 0 322 383" fill="none" xmlns="http://www.w3.org/2000/svg">
<path fill-rule="evenodd" clip-rule="evenodd" d="M34.3583 1.05209C32.2693 2.06809 22.5533 15.2441 15.1703 27.0731C9.08329 36.8261 3.30029 48.6811 1.33929 55.4261C-6.36571 81.9321 20.5243 108.215 47.4323 100.48C65.9313 95.1621 78.1453 76.8551 74.9483 59.2351C73.5103 51.3091 64.8443 33.9201 55.0173 19.2411C42.7163 0.867083 39.8773 -1.63291 34.3583 1.05209ZM155.38 1.06909C151.973 2.77409 125.493 39.2561 104.308 71.4331C68.6093 125.654 46.9183 168.02 38.7743 199.433C35.7513 211.093 35.5053 231.085 38.2263 243.886C48.7743 293.503 85.3083 329.962 135.188 340.651C151.731 344.196 180.133 342.636 195.083 337.362L198.997 335.981L205.758 342.707C213.817 350.724 222.496 356.036 233.38 359.615C244.591 363.301 261.818 363.507 272.88 360.088C295.393 353.129 311.426 337.273 319.045 314.433C321.016 308.524 321.378 305.407 321.37 294.433C321.36 282.467 321.115 280.748 318.285 272.815C312.66 257.052 301.165 243.105 287.5 235.463L281.14 231.906L280.601 218.67C280.203 208.889 279.407 203.083 277.553 196.433C266.099 155.341 228.194 89.2291 174.297 16.3391C161.877 -0.456917 160.558 -1.52191 155.38 1.06909ZM43.8183 27.8411C51.6213 39.4461 59.4553 54.2251 60.9143 60.0951C63.5873 70.8451 55.9053 83.1261 44.4203 86.4651C34.8893 89.2351 26.1133 86.5281 19.4733 78.7711C12.3333 70.4291 12.2633 62.4931 19.2063 48.5541C23.0543 40.8301 36.5993 18.9331 37.5303 18.9331C37.6943 18.9331 40.5243 22.9421 43.8183 27.8411ZM173.259 38.8001C220.184 104.101 252.795 161.506 263.423 197.514C265.23 203.634 266.232 209.858 266.617 217.347C267.148 227.654 267.076 228.222 265.339 227.556C261.99 226.27 243.542 226.838 237.38 228.416C234.08 229.261 227.555 231.812 222.88 234.083C216.004 237.424 212.742 239.862 205.809 246.839C195.86 256.852 190.11 267.016 187.332 279.503C184.461 292.408 186.068 309.606 191.306 322.037C192.781 325.536 169.339 329.553 152.944 328.61C118.432 326.624 86.8953 308.552 68.0663 279.972C61.0043 269.252 56.6863 259.416 53.1543 246.007C49.5803 232.439 49.3983 213.19 52.7263 200.933C59.3453 176.556 77.7333 139.355 103.145 98.9331C120.726 70.9671 157.505 18.5831 158.938 19.4691C159.362 19.7311 165.807 28.4301 173.259 38.8001ZM288.677 46.6131C285.131 47.5471 268.883 72.0161 263.662 84.2871C258.513 96.3851 260.02 108.266 267.829 117.137C276.473 126.958 290.175 130.472 302.169 125.945C313.502 121.668 321.88 109.755 321.88 97.9181C321.88 91.5711 318.235 81.9161 311.717 70.9981C305.416 60.4431 297.369 49.3891 294.548 47.4131C292.401 45.9091 291.709 45.8151 288.677 46.6131ZM304.041 85.9781C308.182 93.9831 308.669 102.046 305.288 106.61C301.675 111.486 297.113 113.933 291.633 113.933C281.667 113.933 274.697 107.5 274.599 98.2101C274.542 92.8181 278.684 83.7151 286.635 71.7571L291.238 64.8361L295.97 72.1801C298.573 76.2191 302.205 82.4281 304.041 85.9781ZM64.8953 218.641C63.0343 221.007 62.8443 222.173 63.3863 227.891C65.2003 247.01 70.2973 261.836 79.9013 275.933C96.1963 299.851 122.647 315.014 152.386 317.484C159.336 318.061 160.682 317.904 162.593 316.291C165.823 313.565 166.403 309.801 164.042 306.885C162.341 304.784 160.71 304.308 151.731 303.29C130.631 300.897 115.166 293.523 100.88 279.041C87.0653 265.037 79.9313 249.818 77.7833 229.773C76.5403 218.162 75.3343 215.933 70.2983 215.933C67.9313 215.933 66.4363 216.683 64.8953 218.641ZM267.749 242.386C276.544 244.727 283.721 248.818 290.884 255.575C313.21 276.637 313.663 311.211 291.898 332.94C266.192 358.603 223.09 352.07 205.95 319.913C196.063 301.363 198.393 276.864 211.563 260.896C218.943 251.948 230.564 244.377 240.498 242.045C246.571 240.62 261.83 240.81 267.749 242.386ZM251.195 255.949C247.361 257.478 246.88 260.027 246.88 278.815V296.829L251.755 302.687C259.018 311.415 262.663 314.204 265.783 313.421C273.848 311.397 273.324 304.567 264.446 295.987L260.88 292.541V276.348C260.88 262.363 260.641 259.879 259.13 258.131C256.953 255.613 254.045 254.813 251.195 255.949ZM33.7323 307.956C31.0433 309.526 18.1393 329.203 13.5943 338.662C9.97429 346.197 9.38029 348.349 9.38029 353.933C9.38029 378.726 39.3243 391.368 57.2153 374.128C63.4973 368.075 65.3223 363.658 65.3533 354.433C65.3783 347.092 65.0433 345.733 61.2863 337.933C57.0603 329.159 47.6273 314.515 43.0893 309.683C40.4283 306.85 36.7793 306.177 33.7323 307.956ZM42.4403 332.92C51.8003 347.388 53.7023 354.432 49.9243 360.629C42.7563 372.385 25.8783 368.972 23.2833 355.242C22.8493 352.95 23.4283 350.414 25.3363 346.242C28.0263 340.359 36.6463 325.933 37.4713 325.933C37.7183 325.933 39.9543 329.077 42.4403 332.92Z" fill="black"/>
</svg>
