<svg width="326" height="382" viewBox="0 0 326 382" fill="none" xmlns="http://www.w3.org/2000/svg">
<path fill-rule="evenodd" clip-rule="evenodd" d="M122.798 2.3617C120.772 4.5187 120.624 5.6647 120.624 19.1877C120.624 33.0637 120.725 33.7947 122.938 35.8737C124.211 37.0697 126.011 38.0477 126.938 38.0477C128.417 38.0477 128.624 39.3957 128.624 49.0087V59.9707L124.374 61.0457C77.6293 72.8737 37.7333 104.984 16.6663 147.735C-19.1517 220.416 4.39034 308.724 71.6693 354.065C132.507 395.065 211.465 390.594 268.299 342.93C289.417 325.22 308.511 296.854 317.024 270.548C328.977 233.608 327.936 195.288 314.02 159.956L310.636 151.363L313.263 144.956C315.186 140.263 316.019 136.139 316.373 129.548C316.795 121.703 316.521 119.551 314.241 112.78C309.076 97.4387 297.001 76.1087 280.006 52.3077C270.358 38.7947 268.377 37.1397 263.359 38.3997C261.014 38.9877 253.812 48.2107 242.744 64.7977C239.35 69.8857 236.422 74.0477 236.239 74.0477C236.056 74.0477 232.58 72.5127 228.515 70.6357C222.655 67.9297 209.197 63.4537 197.874 60.4427C196.97 60.2027 196.624 57.0607 196.624 49.0787C196.624 39.0657 196.792 38.0477 198.45 38.0477C199.454 38.0477 201.254 37.0057 202.45 35.7337C204.476 33.5767 204.624 32.4307 204.624 18.9077C204.624 -1.8883 208.95 0.0476988 162.484 0.0476988H124.973L122.798 2.3617ZM190.624 19.0477V24.0477H162.624H134.624V19.0477V14.0477H162.624H190.624V19.0477ZM182.623 47.7977V57.5477H162.623H142.623L142.624 47.7977V38.0477H162.624H182.624L182.623 47.7977ZM275.994 71.2977C287.365 88.4527 294.458 100.774 298.828 110.963C301.64 117.52 302.084 119.703 302.102 127.069C302.122 134.705 301.783 136.284 298.837 142.266C286.39 167.551 250.949 169.999 234.951 146.679C224.766 131.833 226.921 117.733 243.693 89.5027C251.694 76.0357 264.592 57.0477 265.74 57.0477C266.185 57.0477 270.799 63.4597 275.994 71.2977ZM195.735 74.3557C206.317 76.8737 227.099 84.3887 228.141 86.0757C228.672 86.9337 222.072 101.048 221.14 101.048C220.888 101.048 218.152 99.9297 215.061 98.5627C187.271 86.2717 151.681 84.5707 122.381 94.1317C101.761 100.86 85.9683 110.641 70.0933 126.517C42.7923 153.817 30.6253 185.028 31.8903 224.512C32.2963 237.208 32.9233 242.527 34.8983 250.048C48.2903 301.033 86.1234 337.435 136.89 348.183C150.291 351.021 172.947 351.251 185.998 348.683C245.649 336.946 287.843 290.621 293.722 230.411C295.086 216.438 293.692 200.263 289.897 186.048C288.502 180.823 287.308 175.821 287.243 174.932C287.173 173.98 289.918 171.435 293.921 168.739L300.717 164.163L301.77 166.856C309.325 186.172 312.731 211.414 310.634 232.548C304.818 291.158 266.294 340.617 211.772 359.472C193.419 365.819 183.602 367.403 162.624 367.403C147.435 367.403 142.334 367.017 134.124 365.246C105.233 359.016 81.0723 346.581 60.8233 327.52C22.2833 291.24 5.88234 237.115 17.8043 185.548C29.8093 133.619 69.8713 91.4597 121.454 76.4737C136.981 71.9627 144.531 71.1097 165.624 71.4847C182.208 71.7807 186.711 72.2097 195.735 74.3557ZM185.967 104.108C195.181 105.977 212.39 111.914 215.289 114.224C216.1 114.87 216.176 116.123 215.539 118.344C215.036 120.099 214.624 123.878 214.624 126.742C214.624 154.251 237.293 177.048 264.648 177.048H272.461L274.546 183.312C283.868 211.325 281.586 242.877 268.238 270.548C242.554 323.79 181.188 349.717 125.231 330.97C73.8033 313.74 39.8783 261.749 45.4473 208.698C48.4343 180.239 59.6603 156.182 79.1243 136.527C95.9273 119.559 115.313 109.107 139.4 104.028C151.981 101.376 172.67 101.411 185.967 104.108ZM159.939 132.064C158.738 132.543 157.275 133.831 156.689 134.926C156.004 136.207 155.624 147.563 155.624 166.783V196.649L151.148 198.824C148.646 200.039 145.381 202.782 143.744 205.042C140.688 209.26 138.232 217.245 138.796 221.131C139.086 223.129 137.305 224.335 123.525 231.471C114.946 235.913 107.184 240.166 106.275 240.92C103.631 243.118 104.161 248.538 107.259 250.975C108.708 252.115 110.396 253.049 111.009 253.051C111.622 253.053 119.663 249.206 128.876 244.502L145.629 235.95L148.876 238.361C166.63 251.541 191.728 233.876 185.261 212.753C183.294 206.33 179.765 201.931 174.217 198.988L169.624 196.551V166.411C169.624 139.143 169.457 136.077 167.874 134.246C165.697 131.728 162.789 130.928 159.939 132.064ZM167.679 211.078C170.603 212.642 172.854 217.726 172.114 221.094C171.291 224.843 166.273 229.048 162.624 229.048C158.975 229.048 153.957 224.843 153.134 221.094C152.417 217.831 154.576 212.758 157.374 211.128C159.656 209.799 165.239 209.772 167.679 211.078Z" fill="black"/>
</svg>
