<svg width="512" height="494" viewBox="0 0 512 494" fill="none" xmlns="http://www.w3.org/2000/svg">
<path fill-rule="evenodd" clip-rule="evenodd" d="M309.346 2.455C307.473 4.327 306.891 5.967 306.891 9.373C306.891 15.3 307.569 16.782 311.12 18.618C317.295 21.812 322.891 17.604 322.891 9.766C322.891 3.819 319.763 0 314.891 0C312.943 0 310.893 0.907 309.346 2.455ZM282.346 29.455C280.798 31.002 279.891 33.052 279.891 35C279.891 39.868 283.715 43.007 289.596 42.968C296.664 42.921 300.669 38.817 299.378 32.943C298.493 28.913 295.353 27 289.623 27C285.836 27 284.273 27.527 282.346 29.455ZM332.346 29.455C329.537 32.263 329.263 34.885 331.354 38.928C333.094 42.293 334.67 43.011 340.223 42.968C346.67 42.919 350.62 38.594 349.378 32.943C348.493 28.913 345.353 27 339.623 27C335.836 27 334.273 27.527 332.346 29.455ZM309.346 52.455C307.449 54.351 306.891 55.958 306.891 59.52C306.891 65.283 307.994 67.386 311.853 68.984C314.294 69.995 315.488 69.995 317.929 68.984C321.788 67.386 322.891 65.283 322.891 59.52C322.891 53.831 319.672 50 314.891 50C312.943 50 310.893 50.907 309.346 52.455ZM98.8914 56.716C98.0664 57.012 96.3784 58.176 95.1414 59.302C91.8384 62.306 91.9514 70.151 95.3464 73.545C100.875 79.075 108.891 74.966 108.891 66.601C108.891 60.122 103.7 54.99 98.8914 56.716ZM70.2554 84.17C67.9634 85.279 65.8914 88.956 65.8914 91.912C65.8914 92.912 66.8244 94.916 67.9644 96.365C69.7384 98.621 70.8004 99 75.3534 99C81.6244 99 84.5874 97.042 85.5054 92.29C86.0244 89.604 85.6294 88.584 83.0854 86.04C80.7164 83.671 79.2004 83.015 76.2184 83.068C74.1134 83.105 71.4304 83.601 70.2554 84.17ZM118.814 85.923C115.364 89.374 115.092 92.714 117.964 96.365C119.752 98.638 120.788 99 125.509 99C129.986 99 131.428 98.554 133.436 96.545C136.739 93.243 136.575 89.53 132.968 85.923C128.852 81.807 122.93 81.807 118.814 85.923ZM413.206 88.007C410.184 89.225 408.891 92.064 408.891 97.48C408.891 105.284 414.276 108.921 420.819 105.537C424.184 103.797 424.902 102.221 424.859 96.668C424.825 92.167 423.633 89.988 420.207 88.163C417.679 86.817 416.24 86.785 413.206 88.007ZM256.891 106.091C238.04 109.334 221.966 124.86 217.397 144.24C215.157 153.74 215.42 156.683 218.814 160.077C222.229 163.492 225.601 163.802 229.131 161.026C231.162 159.428 231.855 157.61 232.765 151.487C234.177 141.993 236.776 136.775 243.066 130.799C250.084 124.132 257.043 121.681 267.391 122.232C277.149 122.752 283.467 125.647 289.77 132.485C296.14 139.395 298.283 144.899 298.342 154.5C298.382 161.094 297.934 163.475 295.79 168.046C292.207 175.685 288.059 180.089 280.676 184.092L274.391 187.5L177.554 188L80.7174 188.5L78.3044 191.306C76.9774 192.849 75.8914 194.784 75.8914 195.605C75.8914 197.965 78.6574 202.696 80.4364 203.379C81.3264 203.72 124.898 204 177.263 204C259.574 204 273.268 203.792 278.356 202.467C299.72 196.903 314.891 176.843 314.891 154.161C314.891 133.846 300.368 113.984 281.139 108.001C273.682 105.68 263.803 104.902 256.891 106.091ZM98.8914 106.716C98.0664 107.012 96.3784 108.176 95.1414 109.302C91.8384 112.306 91.9514 120.151 95.3464 123.545C100.875 129.075 108.891 124.966 108.891 116.601C108.891 110.122 103.7 104.99 98.8914 106.716ZM384.346 116.455C378.826 121.974 382.925 130 391.264 130C397.191 130 398.673 129.322 400.509 125.771C403.703 119.596 399.495 114 391.657 114C387.834 114 386.278 114.522 384.346 116.455ZM434.346 116.455C428.826 121.974 432.925 130 441.264 130C447.191 130 448.673 129.322 450.509 125.771C453.703 119.596 449.495 114 441.657 114C437.834 114 436.278 114.522 434.346 116.455ZM413.206 138.007C410.184 139.225 408.891 142.064 408.891 147.48C408.891 151.042 409.449 152.649 411.346 154.545C416.683 159.883 424.891 155.973 424.891 148.093C424.891 142.936 423.289 139.502 420.234 138.11C417.4 136.819 416.198 136.801 413.206 138.007ZM446.663 181.345C438.806 184.022 430.235 189.642 425.204 195.416C418.417 203.203 412.891 217.685 412.891 227.682C412.891 234.867 421.335 238.647 426.298 233.684C427.956 232.026 428.81 229.681 429.303 225.434C430.707 213.335 437.898 203.135 448.815 197.755C452.537 195.921 455.072 195.5 462.391 195.5C469.71 195.5 472.245 195.921 475.967 197.755C483.393 201.414 488.519 206.5 492.086 213.744C494.928 219.517 495.365 221.428 495.365 228.079C495.365 234.873 494.965 236.536 491.878 242.576C489.435 247.355 486.824 250.673 483.157 253.656C473.339 261.642 494.873 261 236.633 261H5.73742L2.81442 263.923C-0.635579 267.374 -0.907579 270.714 1.96442 274.365L4.03642 277H237.358C467.277 277 470.774 276.971 477.108 275.015C501.677 267.426 516.733 241.01 510.383 216.631C505.828 199.141 493.648 186.094 477.108 180.985C468.006 178.174 455.535 178.321 446.663 181.345ZM454.248 329.97C447.877 332.605 447.009 343.269 452.804 347.718C456.883 350.85 464.121 347.6 465.212 342.147C465.881 338.798 464.438 332.699 462.618 331.189C460.69 329.588 456.608 328.994 454.248 329.97ZM82.2454 334.692C79.3664 335.255 77.0464 337.977 76.3114 341.652C75.8434 343.989 76.2744 345.334 78.2124 347.587L80.7174 350.5L177.554 351C273.373 351.495 274.439 351.522 278.942 353.606C288.227 357.902 294.471 365.307 297.45 375.556C301.669 390.068 294.011 406.865 280.052 413.72C275.128 416.138 273.219 416.499 265.391 416.491C257.5 416.483 255.74 416.14 251.107 413.707C240.513 408.143 234.628 399.69 232.738 387.32C231.491 379.152 229.118 376 224.217 376C220.476 376 217.28 378.603 216.319 382.432C215.976 383.797 216.236 388.115 216.896 392.027C219.981 410.318 234.064 426.197 251.823 431.407C254.83 432.289 260.885 433 265.391 433C279.607 433 290.806 428.373 300.503 418.493C329.45 388.997 311.936 339.711 270.827 334.985C262.762 334.058 86.8854 333.785 82.2454 334.692ZM425.502 358.25C421.899 361.491 421.627 366.736 424.891 370C427.903 373.012 436.768 372.824 439.717 369.686C442.698 366.512 442.575 361.593 439.436 358.455C436.099 355.117 429.098 355.014 425.502 358.25ZM475.526 358.073C472.164 360.717 471.833 366.942 474.891 370C477.903 373.012 486.768 372.824 489.717 369.686C492.698 366.512 492.575 361.593 489.436 358.455C486.218 355.236 479.371 355.048 475.526 358.073ZM453.911 380.26C447.846 383.388 447.21 393.423 452.804 397.718C456.883 400.85 464.121 397.6 465.212 392.147C465.881 388.798 464.438 382.699 462.618 381.189C460.426 379.369 456.459 378.946 453.911 380.26ZM118.964 407.635C117.609 409.357 116.891 411.735 116.891 414.5C116.891 420.51 119.83 424 124.891 424C129.952 424 132.891 420.51 132.891 414.5C132.891 408.49 129.952 405 124.891 405C121.918 405 120.562 405.602 118.964 407.635ZM379.671 426.064C375.542 428.47 375.497 439.466 379.603 442.58C382.269 444.603 387.575 444.316 389.866 442.025C393.821 438.07 393.688 429.372 389.629 426.529C387.157 424.797 382.237 424.567 379.671 426.064ZM95.2484 431.94C92.4714 433.127 89.8914 436.848 89.8914 439.667C89.8914 440.889 90.9774 443.151 92.3044 444.694C94.3704 447.096 95.4634 447.5 99.8914 447.5C104.319 447.5 105.412 447.096 107.478 444.694C110.493 441.188 110.546 437.873 107.639 434.494C105.163 431.614 98.9884 430.342 95.2484 431.94ZM146.161 431.66C143.313 432.265 139.891 436.587 139.891 439.579C139.891 440.849 140.977 443.151 142.304 444.694C144.37 447.096 145.463 447.5 149.891 447.5C154.319 447.5 155.412 447.096 157.478 444.694C160.493 441.188 160.547 437.866 157.641 434.522C155.358 431.895 150.617 430.713 146.161 431.66ZM354.391 452.097C351.297 453.878 349.891 456.116 349.891 459.257C349.891 463.533 351.457 465.702 355.512 467.04C359.945 468.503 366.31 466.954 367.875 464.03C369.441 461.104 369.082 456.458 367.102 454.012C365.003 451.42 357.525 450.293 354.391 452.097ZM404.391 452.155C399.537 454.81 398.32 460.937 401.887 464.765C406.381 469.589 416.624 468.075 418.641 462.287C421.307 454.639 411.978 448.005 404.391 452.155ZM119.346 457.455C116.127 460.673 115.939 467.52 118.964 471.365C121.732 474.885 127.562 475.044 130.717 471.686C133.66 468.553 133.712 461.314 130.818 457.635C128.035 454.096 122.787 454.014 119.346 457.455ZM379.671 476.064C375.441 478.529 375.584 490.695 379.869 492.988C382.848 494.582 387.454 494.174 390.03 492.088C392.01 490.486 392.391 489.259 392.391 484.5C392.391 479.741 392.01 478.514 390.03 476.912C387.489 474.854 382.454 474.441 379.671 476.064Z" fill="black"/>
</svg>
