<svg width="464" height="464" viewBox="0 0 464 464" fill="none" xmlns="http://www.w3.org/2000/svg">
<path fill-rule="evenodd" clip-rule="evenodd" d="M208.395 0.66912C73.0352 15.3471 -20.8188 140.872 3.98019 274.063C9.58519 304.163 21.0582 332.778 37.6602 358.063C47.7722 373.464 55.1662 382.559 68.0322 395.426C80.8992 408.292 89.9942 415.686 105.395 425.798C196.586 485.674 319.037 472.807 396.1 395.251C431.259 359.866 453.649 315.123 461.568 264.423C464.036 248.623 464.033 214.528 461.563 198.563C456.786 167.693 446.469 138.556 431.409 113.406C395.241 53.0071 335.365 12.7291 265.895 2.06512C253.177 0.11312 220.775 -0.67388 208.395 0.66912ZM256.176 17.0571C353.579 28.4511 430.617 102.66 445.449 199.381C456.687 272.664 427.794 349.284 371.067 396.633C293.105 461.707 182.511 464.542 101.395 403.547C27.7142 348.142 -2.41781 249.634 27.4952 161.955C60.1912 66.1221 156.101 5.35012 256.176 17.0571ZM216.111 30.5901C141.48 36.6671 75.8842 83.9611 46.4862 152.888C21.4282 211.64 26.1782 280.899 58.9922 335.224C65.6262 346.206 67.0012 347.563 71.5022 347.563C74.5982 347.563 76.1202 346.593 82.2522 340.713C86.1802 336.945 112.345 312.12 140.395 285.546C320.144 115.254 355.781 81.1531 356.346 78.9011C356.682 77.5621 356.381 75.2811 355.676 73.8331C352.644 67.6021 319.322 48.4791 299.538 41.6161C273.192 32.4771 242.597 28.4331 216.111 30.5901ZM245.5 46.6031C275.166 48.9951 303.003 57.8301 327.506 72.6301L336.084 77.8121L324.3 88.9371C317.819 95.0561 299.889 112.071 284.456 126.748L256.395 153.433L247.925 145.021L239.455 136.608L244.675 123.823C247.546 116.79 249.895 109.613 249.895 107.873C249.895 104.236 246.086 100.563 242.316 100.563C237.456 100.563 235.347 103.867 227.852 123.215C227.03 125.339 226.919 125.315 219.588 121.474C215.501 119.332 208.611 116.744 204.276 115.722L196.395 113.863L196.152 99.9631C196.018 92.3181 195.674 85.0591 195.387 83.8311C194.723 80.9871 189.681 78.3281 186.477 79.1321C181.095 80.4831 180.436 82.5011 179.895 99.2801L179.395 114.795L172.007 116.669C167.944 117.7 162.152 119.672 159.136 121.053C156.121 122.433 153.282 123.563 152.828 123.563C152.375 123.563 148.977 119.626 145.278 114.813C137.286 104.416 136.339 103.563 132.786 103.563C128.673 103.563 126.973 104.511 125.306 107.734C123.248 111.715 124.014 113.561 132.035 123.94C135.808 128.822 138.895 133.116 138.895 133.483C138.895 133.85 136.65 136.805 133.905 140.051C131.161 143.297 127.083 149.474 124.844 153.779C122.182 158.895 120.36 161.363 119.583 160.905C118.93 160.52 114.57 157.651 109.895 154.529C99.5312 147.608 97.8502 147.018 94.0662 148.974C90.8062 150.66 89.8952 152.335 89.8952 156.645C89.8952 160.34 91.0492 161.424 104.707 170.563L115.916 178.063L115.156 185.563C114.25 194.496 114.295 214.814 115.232 219.497L115.897 222.821L111.146 222.229C108.533 221.903 100.923 221.334 94.2362 220.964C82.0872 220.291 82.0752 220.293 79.4862 222.881C76.1042 226.263 76.1602 229.982 79.6452 233.466C82.3262 236.147 82.8452 236.247 100.395 237.466C110.295 238.153 118.644 239.019 118.948 239.389C119.253 239.76 120.55 243.438 121.83 247.563C123.11 251.688 125.866 258.768 127.954 263.297L131.751 271.53L102.874 299.1C86.9922 314.264 73.6372 326.724 73.1962 326.79C72.7562 326.856 69.5842 321.362 66.1472 314.582C51.4292 285.537 44.7132 252.052 47.0042 219.136C53.3852 127.487 125.544 54.2061 216.865 46.6331C230.872 45.4721 231.463 45.4711 245.5 46.6031ZM360.572 98.3361C356.075 102.612 330.795 126.598 304.395 151.639C277.995 176.68 241.995 210.839 224.395 227.549C206.795 244.258 167.983 281.093 138.145 309.405C73.7162 370.539 78.5592 363.109 93.6452 377.674C146.752 428.946 224.199 446.258 295.979 422.904C310.414 418.208 335.71 405.522 347.292 397.171C387.423 368.235 414.783 329.117 426.762 283.547C431.839 264.233 433.325 252.255 433.27 231.063C433.2 204.091 429.549 184.095 420.217 159.563C411.436 136.48 396.202 111.863 380.803 95.8751C373.263 88.0461 371.123 88.3061 360.572 98.3361ZM380.467 119.751C382.914 122.879 387.11 128.976 389.792 133.299C431.647 200.785 426.2 287.463 376.255 348.712C368.052 358.772 350.475 375.244 339.861 382.818C327.724 391.479 304.502 403.177 290.209 407.828C228.546 427.897 161.894 414.923 112.145 373.167C107.058 368.897 102.895 365.303 102.895 365.181C102.895 365.058 115.553 352.863 131.025 338.081L159.154 311.205L161.998 314.634C163.562 316.52 164.853 318.44 164.868 318.901C164.883 319.362 160.643 325.266 155.447 332.022C150.25 338.777 145.712 345.445 145.362 346.84C144.085 351.925 149.5 357.248 154.771 356.09C157.069 355.586 159.903 352.609 167.474 342.752C172.834 335.773 177.316 329.931 177.435 329.769C177.553 329.607 181.155 331.989 185.44 335.063C189.724 338.137 196.107 342.261 199.623 344.228C203.24 346.25 205.817 348.323 205.557 349.001C205.305 349.659 202.352 354.379 198.996 359.49C195.641 364.601 192.895 369.758 192.895 370.95C192.895 373.842 195.544 377.479 198.458 378.587C203.394 380.464 206.34 378.119 213.984 366.231C217.933 360.089 221.282 354.923 221.425 354.751C221.568 354.579 225.25 354.927 229.606 355.523C237.092 356.548 244.018 356.119 254.645 353.97L257.895 353.313V366.438C257.895 378.23 258.098 379.766 259.895 381.563C262.04 383.708 266.837 384.2 269.856 382.584C272.969 380.918 273.895 375.856 273.895 360.509V345.753L278.407 343.109C280.889 341.654 285.826 338.265 289.378 335.576L295.837 330.687L300.726 339.375C303.416 344.153 306.572 349.946 307.742 352.247C311.372 359.391 317.682 361.776 321.87 357.588C326.038 353.42 325.622 351.562 316.888 335.368C311.68 325.712 308.989 319.713 309.534 318.977C310.008 318.339 314.67 313.034 319.895 307.187L329.395 296.557L339.395 307.072C350.013 318.235 352.02 319.265 356.736 315.962C359.852 313.779 361.086 310.195 359.844 306.93C359.294 305.481 355.817 301.091 352.119 297.174C348.421 293.256 343.92 288.444 342.117 286.48L338.838 282.909L341.976 276.204C343.702 272.516 345.833 265.688 346.712 261.031C347.601 256.325 348.815 252.563 349.445 252.563C350.069 252.563 356.93 253.909 364.693 255.555C379.889 258.776 382.327 258.64 385.294 254.404C387.512 251.237 387.295 248.128 384.645 245.124C382.708 242.929 379.96 242.074 364.895 238.979C355.27 237.002 347.227 235.219 347.021 235.017C346.816 234.814 345.544 231.367 344.195 227.356C341.474 219.268 339.479 215.584 333.594 207.788C331.404 204.886 329.789 202.35 330.004 202.151C330.219 201.953 336.338 198.82 343.602 195.191C350.866 191.561 357.279 187.715 357.852 186.643C358.426 185.571 358.895 183.348 358.895 181.701C358.895 178.214 354.983 174.563 351.247 174.563C349.939 174.563 342.687 177.635 335.132 181.39C313.897 191.942 316.614 191.489 304.93 186.43L294.894 182.084L300.644 176.345C303.807 173.189 321.02 156.683 338.895 139.666L371.395 108.725L373.706 111.394C374.978 112.862 378.02 116.622 380.467 119.751ZM199.096 131.668C210.308 134.006 216.469 137.966 230.725 151.995L244.055 165.112L232.414 175.981L220.773 186.85L217.084 183.256C202.321 168.873 177.766 174.202 168.914 193.711C165.979 200.178 166.16 211.483 169.303 218.063C170.617 220.813 172.906 224.328 174.391 225.874L177.09 228.686L162.899 242.304C148.373 256.244 144.034 260.067 143.468 259.427C142.053 257.824 135.468 238.977 133.375 230.535C127.087 205.177 129.919 175.906 140.4 157.943C151.531 138.866 177.616 127.189 199.096 131.668ZM206.492 194.654C207.813 195.896 208.895 197.224 208.895 197.605C208.895 198.775 189.837 217.063 188.618 217.063C187.989 217.063 186.444 215.534 185.185 213.665C180.914 207.328 182.959 196.748 189.091 193.453C195.059 190.248 202.336 190.75 206.492 194.654ZM299.184 202.15C309.389 206.566 315.054 210.558 320.007 216.824C333.119 233.412 335.517 255.067 326.235 273.063C320.373 284.43 295.829 311.487 281.958 321.875C255.963 341.342 237.041 344.942 215.4 334.538C202.962 328.558 192.475 321.112 181.482 310.457L171.395 300.679L175.895 296.191C178.37 293.723 203.295 269.89 231.283 243.228L282.171 194.752L286.783 196.766C289.32 197.873 294.9 200.296 299.184 202.15ZM245.395 239.899C236.004 243.016 229.561 248.634 225.709 257.063C222.484 264.12 222.586 275.084 225.94 282.063C234.843 300.583 258.603 305.294 274.171 291.626C282.904 283.957 286.226 269.715 281.933 258.342C279.327 251.439 273.258 244.886 266.559 241.742C260.582 238.936 250.849 238.089 245.395 239.899ZM259.875 256.315C270.095 261.449 270.53 275.547 260.654 281.568C248.535 288.957 234.307 275.476 240.798 262.754C244.476 255.544 252.769 252.744 259.875 256.315Z" fill="black"/>
</svg>
