<svg width="478" height="512" viewBox="0 0 478 512" fill="none" xmlns="http://www.w3.org/2000/svg">
<path fill-rule="evenodd" clip-rule="evenodd" d="M422.652 1.20556C420.091 2.69756 419.097 5.07856 417.897 12.5916C415.293 28.8916 403.907 40.2086 388.147 42.1626C378.402 43.3716 374.639 47.0106 376.297 53.6196C377.191 57.1786 380.889 59.2026 388.147 60.1026C404.03 62.0726 415.715 73.7726 418.015 90.0086C418.525 93.6146 419.612 97.5856 420.429 98.8326C423.219 103.091 430.561 103.091 433.351 98.8326C434.168 97.5856 435.251 93.6386 435.758 90.0626C436.961 81.5676 439.914 75.4766 445.574 69.8166C451.26 64.1306 457.493 61.1176 465.674 60.0996C475.378 58.8926 479.139 55.2446 477.483 48.6456C476.589 45.0866 472.891 43.0626 465.633 42.1626C458.064 41.2236 450.799 37.7296 445.509 32.4826C441.018 28.0286 435.894 17.9926 435.885 13.6326C435.863 3.35056 429.396 -2.72344 422.652 1.20556ZM430.351 40.9686C431.979 43.0276 434.995 46.0436 437.054 47.6716C439.113 49.3006 440.797 50.8576 440.797 51.1326C440.797 51.4076 439.113 52.9646 437.054 54.5936C434.995 56.2216 431.979 59.2376 430.351 61.2966C428.722 63.3556 427.165 65.0436 426.89 65.0486C426.615 65.0526 424.897 63.1616 423.073 60.8446C421.249 58.5276 418.224 55.5076 416.351 54.1326C414.478 52.7576 412.945 51.4076 412.945 51.1326C412.945 50.8576 414.478 49.5076 416.351 48.1326C418.224 46.7576 421.249 43.7376 423.073 41.4206C424.897 39.1036 426.615 37.2126 426.89 37.2166C427.165 37.2216 428.722 38.9096 430.351 40.9686ZM320.652 52.2056C317.484 54.0516 316.557 57.5106 315.848 70.1326C315.063 84.1186 312.538 93.1456 306.711 102.808C302.694 109.468 293.245 120.133 291.362 120.133C290.614 120.133 286.153 118.581 281.448 116.685C243.047 101.203 197.216 98.0816 156.02 108.141C98.2283 122.254 48.4993 161.916 21.8733 215.133C-0.0946903 259.043 -5.70269 308.493 5.89831 356.003C18.1713 406.262 50.0623 450.98 93.8903 479.387C141.896 510.502 202.107 519.923 257.874 505.045C329.177 486.022 384.98 429.532 403.378 357.75C407.239 342.684 409.887 322.245 409.889 307.489C409.89 297.435 408.355 278.482 407.227 274.633C406.705 272.849 406.936 272.904 409.365 275.133C413.375 278.814 416.673 286.013 417.909 293.779C418.509 297.549 419.656 301.638 420.457 302.867C423.215 307.094 430.572 307.074 433.351 302.833C434.168 301.586 435.251 297.639 435.758 294.063C436.935 285.749 439.865 279.565 445.173 274.193C450.717 268.581 457.839 265.07 465.633 264.103C475.378 262.894 479.141 259.255 477.483 252.646C476.597 249.118 473.31 247.326 465.766 246.258C449.584 243.966 438.057 232.439 435.765 216.257C435.255 212.651 434.168 208.68 433.351 207.433C430.572 203.192 423.215 203.172 420.457 207.399C419.656 208.628 418.509 212.717 417.909 216.487C416.492 225.39 413.289 231.551 407.033 237.403C401.236 242.825 399.388 243.253 398.421 239.4C397.238 234.689 389.9 217.997 385.14 209.191C379.442 198.652 371.473 186.829 363.661 177.324L357.653 170.014L360.022 167.493C361.324 166.106 366.44 162.973 371.39 160.53C381.789 155.398 391.935 153.133 404.523 153.133C412.17 153.133 413.216 152.898 415.435 150.678C418.775 147.339 418.775 141.927 415.435 138.588C413.185 136.337 412.209 136.132 403.685 136.116C391.013 136.092 382.117 134.03 370.986 128.535C363.555 124.867 359.969 122.293 353.891 116.263C340.478 102.957 334.711 89.3106 333.369 67.7066C332.71 57.1006 332.371 55.5226 330.305 53.4566C327.853 51.0046 323.648 50.4606 320.652 52.2056ZM330.89 114.821C337.246 124.71 347.833 135.006 357.399 140.601C360.969 142.688 363.89 144.503 363.89 144.633C363.89 144.763 360.878 146.616 357.197 148.751C348.923 153.55 335.629 166.471 330.07 175.116C327.777 178.682 325.735 182.057 325.533 182.616C325.086 183.848 325.612 184.505 318.573 173.94C310.739 162.183 301.939 154.188 287.375 145.595C285.867 144.705 286.562 144.004 292.243 140.681C301.939 135.011 312.504 124.758 318.89 114.821C321.915 110.114 324.615 106.263 324.89 106.263C325.165 106.263 327.865 110.114 330.89 114.821ZM236.39 121.634C246.522 123.423 262.269 127.501 268.178 129.865C271.333 131.127 271.788 131.611 270.5 132.331C267.415 134.058 253.637 136.133 245.257 136.133C237.61 136.133 236.564 136.368 234.345 138.588C232.65 140.282 231.89 142.154 231.89 144.633C231.89 147.112 232.65 148.984 234.345 150.678C236.581 152.915 237.585 153.133 245.661 153.133C250.535 153.133 257.193 153.621 260.456 154.216C279.394 157.674 297.204 170.253 307.166 187.206C312.814 196.816 314.961 204.747 315.812 219.133C316.218 226.008 317.087 232.635 317.743 233.86C320.265 238.569 326.562 239.552 330.295 235.819C332.332 233.782 332.697 232.14 333.348 222.092C334.418 205.582 338.283 192.349 344.287 184.633C345.809 182.678 345.922 182.722 349.359 186.633C354.821 192.848 366.153 209.742 371.159 219.133C377.826 231.641 383.492 246.432 381.83 246.986C381.1 247.23 379.466 248.467 378.197 249.735C373.347 254.585 376.673 262.251 384.244 263.672C388.296 264.432 388.246 264.328 390.412 276.633C392.666 289.433 393.408 312.519 391.971 325.133C386.814 370.43 367.611 409.869 335.673 440.758C266.945 507.229 158.963 510.755 85.3903 448.93C6.51131 382.647 -3.46469 264.839 63.0933 185.633C93.8553 149.025 136.741 126.161 185.89 120.164C196.39 118.883 225.633 119.734 236.39 121.634ZM189.41 188.182C127.836 197.826 84.0643 250.691 87.1913 311.633C88.7483 341.973 100.661 368.95 121.867 390.156C138.749 407.038 160.392 418.493 184.39 423.246C194.733 425.295 219.28 425.019 229.89 422.734C271.183 413.844 305.272 383.807 318.378 344.764C323.269 330.194 324.256 323.677 324.232 306.133C324.201 283.961 320.904 269.801 311.552 251.669C295.2 219.965 265.35 197.302 229.728 189.544C221.006 187.645 197.836 186.862 189.41 188.182ZM222.964 205.748C262.453 212.511 294.174 241.626 304.552 280.633C306.849 289.268 307.22 292.681 307.27 305.633C307.317 317.931 306.929 322.219 305.114 329.44C295.677 366.987 267.776 395.353 231.009 404.781C173.413 419.551 115.566 381.952 105.505 323.207C93.6743 254.137 153.894 193.917 222.964 205.748ZM200.487 223.445C197.081 226.851 196.943 232.277 200.18 235.514C202.043 237.376 203.966 237.92 210.481 238.422C227.023 239.698 242.152 246.626 253.775 258.248C265.397 269.871 272.325 285 273.601 301.542C274.103 308.057 274.647 309.98 276.509 311.843C279.746 315.08 285.172 314.942 288.578 311.536C291.092 309.022 291.156 308.657 290.558 300.234C287.566 258.091 253.932 224.457 211.789 221.465C203.366 220.867 203.001 220.931 200.487 223.445ZM430.351 244.969C431.979 247.028 434.995 250.044 437.054 251.672C439.113 253.301 440.797 254.858 440.797 255.133C440.797 255.408 439.113 256.965 437.054 258.594C434.995 260.222 431.979 263.238 430.351 265.297C428.722 267.356 427.165 269.044 426.89 269.049C426.615 269.053 424.897 267.162 423.073 264.845C421.249 262.528 418.224 259.508 416.351 258.133C414.478 256.758 412.954 255.408 412.964 255.133C412.974 254.858 414.667 253.301 416.726 251.672C418.785 250.044 421.801 247.028 423.429 244.969C425.058 242.91 426.615 241.226 426.89 241.226C427.165 241.226 428.722 242.91 430.351 244.969Z" fill="black"/>
</svg>
