<svg width="448" height="350" viewBox="0 0 448 350" fill="none" xmlns="http://www.w3.org/2000/svg">
<path fill-rule="evenodd" clip-rule="evenodd" d="M294.949 0.843456C292.38 2.12946 291.579 3.49146 285.548 16.8135C279.703 29.7255 269.698 38.7705 255.423 44.0455C251.587 45.4635 247.437 47.7565 246.199 49.1415C241.482 54.4195 244.679 60.1485 253.949 63.0245C269.87 67.9655 282.348 80.9055 289.458 99.8495C291.453 105.163 294.082 107.547 297.949 107.547C302.171 107.547 304.657 104.933 306.929 98.1075C312.236 82.1595 324.624 69.7075 341.386 63.4725C348.537 60.8125 351.949 57.6775 351.949 53.7675C351.949 49.8345 348.764 47.1385 340.429 44.0165C323.714 37.7565 313.72 27.3735 306.922 9.20446C303.96 1.28746 299.826 -1.59954 294.949 0.843456ZM58.8776 29.8555C52.7426 31.5895 45.7696 35.7875 42.3946 39.7775C34.0566 49.6365 31.9176 64.6165 37.2666 75.6905C42.6146 86.7615 52.7966 93.6105 64.9486 94.3115C78.8126 95.1095 89.8696 88.5475 96.1486 75.7924C98.9816 70.0384 99.4196 68.1265 99.3996 61.5955C99.3726 52.3805 96.3076 44.9065 89.9486 38.5475C82.0456 30.6445 69.0006 26.9955 58.8776 29.8555ZM300.05 31.7975C302.373 36.2605 310.498 44.9555 316.412 49.3095C319.732 51.7535 322.244 54.0445 321.993 54.4005C321.742 54.7565 319.629 56.3115 317.296 57.8565C312.568 60.9885 303.032 70.9065 300.297 75.5365C299.318 77.1925 298.262 78.5475 297.949 78.5475C297.636 78.5475 296.58 77.1925 295.601 75.5365C292.866 70.9065 283.33 60.9885 278.602 57.8565C276.269 56.3115 274.156 54.7565 273.905 54.4005C273.654 54.0445 276.166 51.7535 279.486 49.3095C285.4 44.9555 293.525 36.2605 295.848 31.7975C296.492 30.5605 297.438 29.5475 297.949 29.5475C298.46 29.5475 299.406 30.5605 300.05 31.7975ZM72.6946 46.0855C77.6526 48.1575 79.8826 50.2895 82.0676 55.0475C84.4716 60.2815 84.4156 63.9515 81.8526 69.2455C76.4016 80.5065 59.5076 81.6605 53.0516 71.2135C47.1516 61.6675 50.3136 51.0125 60.4076 46.4275C65.3716 44.1725 67.9436 44.1005 72.6946 46.0855ZM147.41 64.4255C142.323 66.7375 135.663 74.2195 134.125 79.3545C130.624 91.0415 135.67 103.122 146.449 108.859C152.708 112.19 162.987 111.906 169.241 108.23C186.871 97.8675 185.142 71.7935 166.304 63.9225C161.641 61.9745 152.257 62.2245 147.41 64.4255ZM162.924 80.5225C167.31 84.9085 166.353 91.3405 160.855 94.4265C155.703 97.3185 148.949 92.9995 148.949 86.8135C148.949 79.8335 158.11 75.7085 162.924 80.5225ZM202.949 107.92C194.974 112.066 163.699 128.506 133.449 144.452L78.4486 173.446L76.5496 171.246C75.5046 170.037 73.3226 166.122 71.7006 162.547C68.0886 154.587 65.4066 151.547 61.9966 151.547C57.9456 151.547 55.4076 153.979 52.9026 160.263C48.0606 172.407 43.4666 177.102 30.7856 182.869C20.3326 187.623 18.2616 192.013 23.8406 197.593L26.7326 200.484L17.0906 205.569C11.7876 208.366 6.01361 212.168 4.25861 214.02C-1.61339 220.217 -1.3884 229.493 4.7816 235.545C9.5906 240.261 212.713 347.093 219.686 348.574C223.22 349.324 225.739 349.243 229.449 348.262C232.199 347.534 264.531 331.1 301.297 311.743C338.064 292.385 368.562 276.547 369.069 276.547C370.429 276.547 375.839 285.45 377.162 289.865C379.086 296.286 385.709 299.57 390.056 296.26C390.939 295.587 393.241 291.62 395.17 287.445C400.568 275.761 408.62 268.133 418.409 265.43C425.812 263.386 428.061 257.21 423.413 251.686L420.876 248.672L430.872 243.538C436.526 240.633 442.168 236.923 443.859 234.996C448.99 229.152 449.188 220.362 444.319 214.575C441.159 210.82 448.587 214.856 330.949 152.962L232.449 101.136L224.949 100.758L217.449 100.381L202.949 107.92ZM272.971 140.797C298.184 154.135 318.506 165.353 318.131 165.727C317.756 166.101 296.419 177.469 270.716 190.989L223.982 215.57L177.216 190.967C151.494 177.435 130.105 166.038 129.684 165.64C129.264 165.243 149.514 154.059 174.684 140.788C207.052 123.722 221.427 116.642 223.789 116.603C226.287 116.561 238.686 122.66 272.971 140.797ZM159.284 199.547C184.929 213.022 205.919 224.272 205.928 224.547C205.942 224.946 129.686 265.503 115.022 272.895L111.356 274.744L65.4026 250.49C40.1276 237.15 18.8676 225.709 18.1576 225.065C17.1426 224.144 19.7996 222.339 30.6116 216.607L44.3556 209.319L46.5696 212.096C47.7876 213.623 49.9566 217.387 51.3896 220.46C55.9606 230.262 56.4606 231.003 59.1356 231.944C63.8196 233.591 67.4666 231.174 70.0526 224.709C74.8136 212.81 81.9726 205.173 91.8016 201.508C94.9076 200.35 98.4606 198.456 99.6986 197.3C103.944 193.335 101.747 185.887 95.7736 183.991C93.8526 183.382 94.7466 182.657 101.99 178.951C106.642 176.57 110.946 174.718 111.553 174.834C112.161 174.951 133.64 186.072 159.284 199.547ZM383.478 199.297C409.231 212.91 430.169 224.497 430.009 225.047C429.848 225.597 423.738 229.189 416.431 233.029L403.145 240.01L401.057 237.529C399.908 236.164 397.809 232.572 396.391 229.547C394.974 226.522 393.271 222.933 392.607 221.572C390.796 217.858 386.709 215.897 383.267 217.09C381.041 217.861 379.494 220.004 375.901 227.291C370.242 238.769 367.405 241.76 357.949 246.219C353.824 248.165 349.774 250.091 348.949 250.501C348.124 250.91 346.789 252.407 345.982 253.828C344.014 257.293 345.464 261.304 349.723 264.174L352.97 266.362L345.303 270.498C341.086 272.772 337.076 274.501 336.391 274.34C334.443 273.881 241.961 225.108 241.975 224.547C241.987 224.08 334.733 174.896 336.052 174.656C336.384 174.596 357.726 185.684 383.478 199.297ZM67.9906 198.511L61.5256 205.047L55.2986 198.557L49.0716 192.066L55.2606 185.557L61.4486 179.047L67.9526 185.511L74.4556 191.975L67.9906 198.511ZM270.64 258.151C296.385 271.683 317.819 283.1 318.271 283.522C319.437 284.613 227.262 332.88 224.013 332.88C221.294 332.88 128.66 284.502 129.593 283.57C129.958 283.205 222.292 234.169 223.64 233.624C223.746 233.582 244.896 244.619 270.64 258.151ZM391.614 263.683L385.563 270.359L379.376 263.703L373.189 257.047L379.319 250.497L385.449 243.946L391.557 250.477L397.665 257.007L391.614 263.683Z" fill="black"/>
</svg>
