<svg width="468" height="420" viewBox="0 0 468 420" fill="none" xmlns="http://www.w3.org/2000/svg">
<path fill-rule="evenodd" clip-rule="evenodd" d="M336.455 2.35644C334.4 4.41044 334 5.77744 334 10.7394V16.6684L327.366 17.0904C320.093 17.5544 317 19.7684 317 24.5124C317 28.9204 320.255 30.9014 327.5 30.9014H334L334.014 36.1514C334.021 39.0394 334.303 42.4324 334.641 43.6914C335.474 46.8034 340.18 49.1634 343.235 48.0024C346.976 46.5794 347.874 44.7454 348.197 37.8634L348.5 31.4014L354.962 31.0984C358.516 30.9314 362.053 30.2724 362.824 29.6334C366.572 26.5214 365.777 20.0324 361.403 18.0394C360.03 17.4134 356.452 16.9014 353.453 16.9014H348V10.4404C348 5.08144 347.627 3.63144 345.811 1.94044C342.886 -0.785565 339.443 -0.632565 336.455 2.35644ZM201.315 32.8874C197.366 34.5164 197 36.8424 197 60.2844V82.7984L173.41 83.1004C149.993 83.3994 149.806 83.4184 147.91 85.7624C146.118 87.9774 146 90.1224 146 120.512C146 151.568 146.082 152.983 148 154.901C149.887 156.788 151.333 156.901 173.5 156.901H197V180.401C197 202.568 197.113 204.014 199 205.901C200.919 207.82 202.333 207.901 234 207.901C265.667 207.901 267.081 207.82 269 205.901C270.887 204.014 271 202.568 271 180.401V156.901H294.5C316.667 156.901 318.113 156.788 320 154.901C321.918 152.983 322 151.568 322 120.512C322 90.1224 321.882 87.9774 320.09 85.7624C318.194 83.4184 318.007 83.3994 294.59 83.1004L271 82.7984V59.9604C271 38.9694 270.846 36.9324 269.089 34.7624L267.179 32.4014L235.339 32.1944C217.828 32.0804 202.517 32.3924 201.315 32.8874ZM257 69.4014C257 91.5684 257.113 93.0144 259 94.9014C260.887 96.7884 262.333 96.9014 284.5 96.9014H308V119.85V142.798L284.41 143.1C260.993 143.399 260.806 143.418 258.91 145.762C257.154 147.932 257 149.972 257 171.012V193.901H234H211V171.012C211 149.972 210.846 147.932 209.09 145.762C207.194 143.418 207.007 143.399 183.59 143.1L160 142.798V119.85V96.9014H183.5C205.667 96.9014 207.113 96.7884 209 94.9014C210.887 93.0144 211 91.5684 211 69.4014V45.9014H234H257V69.4014ZM90.315 71.9174C87.117 73.1924 86 76.0184 86 82.8354V88.9014H79.5C72.255 88.9014 69 90.8824 69 95.2904C69 100.034 72.093 102.248 79.366 102.712L86 103.134V109.063C86 114.025 86.4 115.392 88.455 117.446C91.453 120.445 93.905 120.55 97.365 117.828C99.723 115.973 100 115.081 100 109.328V102.901H105.865C113.274 102.901 117 100.419 117 95.4834C117 90.4784 114.525 88.9014 106.671 88.9014H100V82.0564C100 76.7894 99.597 74.8574 98.25 73.6744C95.817 71.5384 92.892 70.8904 90.315 71.9174ZM316.073 199.536C314.511 201.521 314 203.616 314 208.036V213.901H307.674C302.355 213.901 301.003 214.269 299.174 216.215C296.326 219.248 296.422 222.414 299.455 225.446C301.519 227.511 302.869 227.901 307.955 227.901H314V233.766C314 240.951 316.509 244.901 321.073 244.901C326.013 244.901 328 241.889 328 234.401V227.901H334.277C342.424 227.901 345 226.219 345 220.901C345 215.583 342.424 213.901 334.277 213.901H328V207.624C328 199.762 326.27 196.901 321.516 196.901C319.066 196.901 317.579 197.62 316.073 199.536ZM428.628 231.932C425.122 232.535 405.568 242.475 358.879 267.389L294.002 302.008L243.637 276.524C215.936 262.509 189.949 250.005 185.886 248.739C179.828 246.851 176.342 246.448 166.5 246.5C154.649 246.563 153.975 246.696 112.225 257.232C88.973 263.1 69.57 267.901 69.106 267.901C68.642 267.901 68.046 264.523 67.781 260.395C66.999 248.206 69.047 248.901 33.918 248.901H4.145L2.073 251.536C0.02 254.145 0 254.864 0 324.471C0 366.701 0.381 395.774 0.955 397.282C2.565 401.518 6.891 402.062 36.224 401.716C68.906 401.331 67.18 402.111 67.822 387.431C68.219 378.338 68.331 377.944 70.369 378.404C71.541 378.669 119.75 388.155 177.5 399.483C295.889 422.707 289.593 421.903 302.5 415.433C307.855 412.749 326.302 397.926 381 352.355C420.325 319.592 454.64 290.715 457.255 288.183C466.85 278.895 469.873 267.425 466.045 254.822C464.129 248.514 463.021 246.737 457.668 241.388C449.385 233.11 439.844 230.003 428.628 231.932ZM444.676 248.511C447.786 250.289 449.554 252.334 451.606 256.527C454.198 261.827 454.292 262.478 453.204 267.663C452.569 270.691 451.026 274.439 449.775 275.991C446.411 280.164 301.148 400.7 296.682 403.024C289.278 406.877 286.197 406.59 243 398.016C183.133 386.132 69.565 363.901 68.727 363.901C68.327 363.901 68 345.693 68 323.44V282.978L71.75 281.988C99.951 274.539 157.836 260.654 162.503 260.219C176.612 258.901 178.127 259.496 242.478 291.644C274.94 307.862 302.748 322.016 304.273 323.1C309.927 327.116 312.56 336.641 309.936 343.586C307.483 350.08 300.38 354.904 293.282 354.897C289.055 354.893 292.669 356.477 196.539 312.492C185.011 307.217 174.548 302.901 173.289 302.901C167.958 302.901 164.841 311.072 168.859 314.512C170.868 316.232 271.293 362.462 282 366.596C303.532 374.908 326.227 358.346 324.745 335.401C324.178 326.612 321.252 320.244 314.916 314.008L310.146 309.312L369.323 277.702C401.87 260.316 429.625 245.886 431 245.636C435.09 244.89 440.231 245.971 444.676 248.511ZM53 325.423V387.944L33.75 387.673L14.5 387.401L14.242 325.151L13.985 262.901H33.492H53V325.423Z" fill="black"/>
</svg>
