<svg width="304" height="480" viewBox="0 0 304 480" fill="none" xmlns="http://www.w3.org/2000/svg">
<path fill-rule="evenodd" clip-rule="evenodd" d="M137.343 0.494062C96.9916 5.33406 63.8916 22.3351 37.5496 51.7501C20.8226 70.4281 7.97855 95.9961 2.34455 121.835C0.0905514 132.17 -0.781449 158.099 0.817551 167.211C8.79555 212.656 54.0905 278.352 127.56 351.038C137.957 361.324 147.674 370.201 149.154 370.763C150.997 371.464 152.709 371.457 154.593 370.743C156.105 370.169 165.381 361.743 175.205 352.017C249.381 278.586 294.878 212.723 302.868 167.211C304.467 158.099 303.595 132.17 301.341 121.835C295.707 95.9961 282.863 70.4281 266.136 51.7501C240.05 22.6211 207.363 5.52006 168.869 0.861061C160.887 -0.104939 143.982 -0.301938 137.343 0.494062ZM177.57 18.2981C222.474 27.0581 261.223 58.9381 278.225 101.111C284.543 116.784 286.989 128.491 287.572 145.845C288.036 159.657 287.847 162.338 285.849 170.345C276.176 209.102 242.153 258.926 182.254 322.049C174.053 330.692 163.855 340.967 159.593 344.883L151.843 352.002L144.093 344.872C139.831 340.95 129.818 330.891 121.843 322.517C61.4966 259.152 25.6426 206.306 17.3166 168.453C14.7846 156.942 15.7006 134.203 19.2686 119.972C33.0076 65.1711 78.2596 24.6761 134.444 16.9041C143.935 15.5911 167.618 16.3571 177.57 18.2981ZM137.011 87.3681C133.529 88.1241 126.804 90.6191 122.068 92.9111C105.927 100.724 92.1076 117.773 87.2766 135.835C86.1746 139.956 85.5386 145.996 85.5386 152.335C85.5386 170.696 91.7646 185.738 104.824 198.93C113.048 207.237 121.238 212.32 132.343 216.009C138.173 217.946 141.433 218.335 151.843 218.335C162.253 218.335 165.513 217.946 171.343 216.009C193.409 208.678 210.629 190.644 216.386 168.835C218.688 160.115 218.7 144.392 216.41 135.835C211.603 117.873 197.961 101.011 181.779 93.0311C167.779 86.1281 151.95 84.1261 137.011 87.3681ZM164.301 103.366C176.443 106.529 187.23 114.359 194.314 125.154C204.778 141.097 204.818 163.582 194.412 179.335C173.765 210.588 129.937 210.588 109.277 179.335C99.0686 163.894 98.9015 141.336 108.883 125.895C121.186 106.86 143.261 97.8861 164.301 103.366ZM131.843 412.493C92.4996 415.193 65.5875 421.03 52.0075 429.807C38.7425 438.38 37.4566 450.741 48.8886 459.777C82.4966 486.343 221.189 486.343 254.797 459.777C260.385 455.36 263.496 448.85 262.47 443.718C259.137 427.053 229.856 416.551 176.343 412.827C163.357 411.923 142.436 411.766 131.843 412.493ZM176.843 428.879C195.05 430.165 209.512 432.241 222.343 435.408C233.262 438.103 245.181 443.451 245.622 445.853C246.18 448.896 233.538 454.059 216.481 457.754C165.946 468.703 82.6376 463.657 59.0256 448.216C57.1056 446.961 56.9235 446.442 57.9625 445.19C61.7985 440.569 81.9676 434.276 102.343 431.344C125.233 428.05 152.392 427.152 176.843 428.879Z" fill="black"/>
</svg>
