<svg width="512" height="410" viewBox="0 0 512 410" fill="none" xmlns="http://www.w3.org/2000/svg">
<path fill-rule="evenodd" clip-rule="evenodd" d="M131.448 0.211617C97.0555 3.94962 67.2915 18.1656 42.8525 42.5256C21.7385 63.5716 9.35948 86.3536 2.71148 116.401C-0.399518 130.465 -0.373518 158.712 2.76548 173.272C6.68748 191.468 14.7945 211.018 24.2505 225.084C28.8945 231.991 39.3195 244.723 43.8525 249.022L46.9505 251.96L34.5225 256.595C19.8905 262.05 12.8795 266.94 6.94248 275.831C-1.11252 287.894 -2.18152 300.784 3.85748 313.051C9.79748 325.116 20.3355 331.161 33.9485 330.312C38.4575 330.031 43.3425 329.009 46.1985 327.75L50.9485 325.655V332.082C50.9485 354.236 72.7925 370.815 95.0825 365.578C99.9445 364.436 121.637 356.803 257.315 308.492C280.343 300.292 299.386 293.584 299.634 293.584C299.881 293.584 299.148 294.898 298.004 296.505C294.652 301.213 289.141 313.563 287.26 320.584C286.033 325.162 285.526 330.78 285.546 339.584C285.571 350.992 285.853 352.9 288.773 361.426C293.075 373.99 296.383 379.442 300.863 381.353C306.482 383.749 323.216 384.17 332.323 382.144C348.671 378.507 360.724 371.727 372.205 359.711L379.698 351.867L385.428 358.273C399.61 374.129 420.527 383.522 441.755 383.567C458.61 383.602 463.247 380.724 468.721 366.828C476.259 347.692 475.774 326.109 467.395 307.822C465.564 303.828 463.14 299.258 462.007 297.668C459.211 293.74 459.367 293.187 463.698 291.685C480.404 285.888 499.274 267.455 506.341 250.027C509.547 242.121 512.399 228.519 511.556 225.158C511.184 223.677 509.035 220.464 506.779 218.017L502.678 213.568L505.783 207.744C522.082 177.163 504.213 142.64 463.879 126.786C450.143 121.387 443.268 120.25 428.084 120.865C413.979 121.437 404.208 123.408 392.87 127.969C387.669 130.061 387.018 130.113 383.255 128.741C379.361 127.321 378.986 127.378 372.653 130.341C369.043 132.031 363.641 135.261 360.65 137.519C356.222 140.862 349.749 143.58 325.83 152.137C309.67 157.919 294.873 163.261 292.948 164.009L289.448 165.368L289.413 145.726C289.384 129.243 289.023 124.446 287.158 115.896C282.613 95.0516 273.287 74.1966 261.477 58.4606C253.36 47.6456 236.64 31.5716 226.427 24.7656C202.966 9.13162 176.832 0.81362 148.975 0.11562C141.535 -0.0703797 133.648 -0.0273828 131.448 0.211617ZM168.605 19.0776C219.634 28.8126 259.349 67.9636 270.561 119.584C272.81 129.938 273.149 157.845 271.133 166.72L269.854 172.355L256.151 177.134C248.614 179.762 241.915 182.101 241.263 182.33C240.492 182.602 240.724 181.046 241.929 177.876C246.526 165.778 248.653 147.242 247.016 133.537C241.566 87.8826 209.476 52.6256 164.948 43.3676C152.586 40.7976 131.458 41.2856 119.773 44.4106C90.2415 52.3096 66.2245 71.6696 53.0555 98.1936C30.0795 144.468 44.4915 199.797 87.1175 228.959C96.5115 235.386 97.5635 233.998 77.9885 241.011L65.5275 245.474L54.8995 234.779C48.4245 228.264 41.9005 220.457 38.2055 214.803C4.16548 162.723 12.1125 94.6306 57.2085 51.9916C78.5715 31.7926 103.026 20.8376 134.948 17.1686C141.217 16.4476 160.576 17.5466 168.605 19.0776ZM346.25 17.5956C342.071 19.2786 340.74 23.8196 341.11 35.1256C341.414 44.4046 341.689 45.6836 343.872 48.0056C347.093 51.4306 352.687 51.5546 355.774 48.2696C357.748 46.1676 357.948 44.8886 357.948 34.3506C357.948 27.9686 357.668 22.0186 357.327 21.1286C356.656 19.3796 351.86 16.5436 349.748 16.6466C349.033 16.6816 347.459 17.1086 346.25 17.5956ZM312.19 52.0326C306.681 54.5036 305.584 61.2196 309.973 65.6086C311.726 67.3616 313.334 67.5836 324.274 67.5836C335.865 67.5836 336.729 67.4456 338.774 65.2696C341.871 61.9716 341.688 56.6276 338.37 53.5076C336.038 51.3146 334.823 51.0596 325.62 50.8276C318.38 50.6456 314.509 50.9926 312.19 52.0326ZM363.332 52.0176C361.36 52.8766 359.816 54.5236 359.125 56.5066C357.881 60.0746 358.379 62.1196 361.271 65.3336C363.161 67.4326 364.113 67.5836 375.448 67.5836C386.857 67.5836 387.732 67.4426 389.774 65.2696C392.094 62.7996 392.658 57.7786 390.969 54.6226C390.431 53.6166 388.564 52.2966 386.82 51.6886C382.399 50.1476 367.138 50.3616 363.332 52.0176ZM136.948 86.0956V111.49L132.243 113.572L127.537 115.653L109.223 97.3686L90.9095 79.0836L94.1785 76.3986C98.3885 72.9416 111.024 66.2566 117.448 64.0876C123.36 62.0926 135.129 59.7096 136.198 60.2926C136.61 60.5176 136.948 72.1286 136.948 86.0956ZM172.448 64.1016C179.259 66.4026 191.819 72.9886 195.782 76.3366L199.033 79.0836L180.711 97.3536L162.389 115.624L158.178 113.854L153.968 112.084L153.958 85.9496L153.948 59.8156L160.698 61.1136C164.411 61.8276 169.698 63.1726 172.448 64.1016ZM345.177 69.2526C342.297 70.4116 340.948 75.4606 340.948 85.0836C340.948 96.1416 342.294 99.8116 346.946 101.433C350.44 102.652 352.499 102.141 355.698 99.2606C357.797 97.3706 357.948 96.4186 357.948 85.0836C357.948 73.6746 357.807 72.7996 355.634 70.7576C353.423 68.6816 348.395 67.9576 345.177 69.2526ZM97.6015 109.737C111.996 124.116 115.584 128.222 114.861 129.487C114.36 130.365 113.51 132.322 112.973 133.834L111.998 136.584H85.9275H59.8575L60.4875 132.834C61.8935 124.463 65.2275 113.866 68.5185 107.309C72.2915 99.7906 77.6245 91.5836 78.7365 91.5836C79.1175 91.5836 87.6065 99.7526 97.6015 109.737ZM217.543 100.316C222.749 108.586 228.152 122.946 229.402 131.834L230.071 136.584H204.145H178.22L176.458 131.97L174.696 127.357L192.564 109.468C202.392 99.6286 210.886 91.7236 211.44 91.9006C211.994 92.0776 214.741 95.8646 217.543 100.316ZM150.049 128.72C160.032 132.057 164.702 143.266 159.971 152.54C157.121 158.125 152.707 160.91 146.013 161.345C126.953 162.583 120.943 137.396 138.407 129.464C143.137 127.315 145.411 127.17 150.049 128.72ZM448.968 139.655C468.231 144.987 485.158 157.601 491.816 171.584C495.296 178.892 495.486 189.832 492.25 196.584C488.542 204.32 488.982 204.135 481.457 201.125C467.252 195.441 447.985 194.13 434.323 197.916L429.199 199.337L428.538 192.71C426.727 174.542 419.757 158.497 408.619 146.855C406.393 144.529 404.809 142.39 405.098 142.101C405.386 141.813 408.958 140.703 413.035 139.635C423.475 136.901 439.053 136.91 448.968 139.655ZM385.483 149.151C397.834 157.349 407.394 171.617 410.565 186.584C412.436 195.416 411.908 211.618 409.444 220.992C407.01 230.251 401.154 240.384 394.221 247.334C390.791 250.772 387.587 253.584 387.1 253.584C386.614 253.584 385.017 250.297 383.552 246.28C378.399 232.152 366.853 217.969 354.094 210.093L347.948 206.3V197.652C347.948 187.259 349.82 179.524 354.48 170.655C359.005 162.044 365.486 154.726 373.074 149.658C376.43 147.417 379.386 145.584 379.642 145.584C379.899 145.584 382.527 147.189 385.483 149.151ZM113.793 157.834L115.714 162.084L97.3415 180.571L78.9685 199.057L77.2085 196.678C68.4375 184.818 63.2995 172.52 60.5655 156.834L59.9985 153.584H85.9355H111.872L113.793 157.834ZM229.395 157.334C227.806 166.582 225.511 173.741 221.408 182.247C217.037 191.308 216.931 191.429 211.849 193.117L206.711 194.824L190.829 178.966C182.095 170.244 174.948 162.595 174.948 161.968C174.948 161.341 175.629 159.198 176.461 157.206L177.975 153.584H204.007H230.039L229.395 157.334ZM336.49 168.334C334.235 174.205 331.804 185.166 331.267 191.883C330.74 198.486 330.399 199.584 329.046 199.046C323.139 196.7 312.552 195.426 302.448 195.847C283.701 196.628 269.055 202.905 255.11 216.135L247.678 223.186L247.796 228.425C248.171 245.071 259.356 266.561 273.75 278.288C277.024 280.956 278.554 282.793 277.75 283.094C269.915 286.024 125.404 337.327 125.28 337.223C125.188 337.145 125.75 334.621 126.53 331.615C129.187 321.37 127.777 309.09 122.82 299.304C119.354 292.461 111.308 283.026 104.652 277.998C98.7785 273.562 83.0985 265.226 75.9215 262.724C74.1075 262.092 72.8155 261.384 73.0495 261.15C73.2825 260.916 82.2435 257.584 92.9615 253.746C103.679 249.907 154.748 231.622 206.448 213.111C258.148 194.601 308.323 176.588 317.948 173.083C327.573 169.579 335.834 166.683 336.305 166.648C336.776 166.613 336.86 167.371 336.49 168.334ZM133.008 176.615L136.988 178.645L136.718 199.365L136.448 220.084L128.948 222.771C124.823 224.249 120.344 225.487 118.994 225.521C115.792 225.603 99.4395 217.577 94.9485 213.719L91.4485 210.712L109.438 192.648C119.332 182.713 127.787 174.584 128.227 174.584C128.668 174.584 130.819 175.498 133.008 176.615ZM175.779 187.914L189.081 201.244L173.265 206.849C164.565 209.932 156.661 212.756 155.698 213.126C154.071 213.751 153.948 212.53 153.948 195.798V177.798L157.698 176.242C159.761 175.387 161.679 174.664 161.962 174.636C162.245 174.607 168.462 180.583 175.779 187.914ZM326.671 215.9C345.692 222.605 357.648 232.239 364.879 246.687C367.117 251.158 368.947 255.326 368.945 255.95C368.943 256.675 366.147 257.179 361.195 257.346C346.448 257.845 331.407 263.473 319.116 273.09C315.254 276.112 311.35 278.584 310.442 278.584C307.431 278.584 295.535 273.338 289.873 269.513C278.409 261.769 268.73 247.905 265.872 235.133C264.69 229.855 264.734 229.572 267.046 227.559C272.444 222.859 281.432 217.59 287.258 215.709C296.645 212.679 296.679 212.675 308.448 213.026C317.08 213.284 321.003 213.902 326.671 215.9ZM467.304 214.169C474.73 216.085 485.316 221.495 490.763 226.158C495.173 229.932 495.156 229.696 491.793 240.274C489.482 247.543 483.746 256.786 477.948 262.584C463.582 276.95 436.244 284.815 416.698 280.205C410.12 278.653 400.475 274.348 396.448 271.165C394.478 269.608 394.494 269.55 397.448 267.357C411.91 256.619 424.118 237.878 426.548 222.684C427.307 217.939 428.465 217.065 437.448 214.464C445.174 212.227 459.236 212.088 467.304 214.169ZM60.9485 275.684C73.0745 278.704 89.8075 287.543 97.9635 295.237C107.512 304.245 110.466 310.385 110.396 321.084C110.341 329.517 108.732 334.049 103.222 341.285C100.08 345.413 91.7085 349.584 86.5675 349.584C78.1965 349.584 69.5005 342.76 68.2785 335.231C67.1145 328.057 70.1855 323.316 76.7855 322.098C81.9975 321.136 84.9485 318.058 84.9485 313.584C84.9485 306.869 79.7345 304.06 70.6985 305.908C67.0085 306.662 66.9485 306.625 66.9485 303.584C66.9485 297.839 60.4025 293.938 54.5395 296.187C53.6755 296.519 51.3765 299.41 49.4325 302.611C41.4745 315.71 25.3555 317.348 19.2525 305.677C14.3215 296.245 17.6005 286.226 28.2695 278.136C35.8925 272.355 44.8735 271.681 60.9485 275.684ZM365.658 275.834C362.639 288.823 361.98 293.381 361.965 301.387C361.946 311.725 363.993 322.325 367.578 330.458L369.947 335.831L365.461 342.118C355.094 356.646 339.783 365.131 321.823 366.302C310.105 367.065 308.596 366.568 306.576 361.277C304.267 355.232 301.983 343.948 301.983 338.584C301.983 325.828 307.854 310.827 317.671 298.498C329.006 284.263 340.969 276.992 356.921 274.642C366.085 273.292 366.244 273.314 365.658 275.834ZM399.015 291.993C408.947 296.649 420.036 298.818 431.807 298.409L441.166 298.084L444.024 301.506C448.529 306.902 453.766 317.684 455.531 325.197C458.639 338.43 455.61 361.004 450.145 365.334C447.967 367.059 435.898 366.896 428.001 365.035C406.255 359.909 386.667 339.518 380.421 315.504C378.559 308.344 378.803 292.03 380.871 285.364L382.026 281.643L386.804 285.076C389.432 286.964 394.927 290.077 399.015 291.993ZM199.237 343.834C194.142 349.401 195.363 352.8 206.245 363.334C212.763 369.643 214.209 370.584 217.387 370.584C222.121 370.584 225.948 366.971 225.948 362.501C225.948 359.86 224.489 357.835 217.267 350.455C209.486 342.504 208.208 341.584 204.941 341.584C202.438 341.584 200.651 342.289 199.237 343.834ZM243.698 350.203C236.263 357.525 234.948 359.308 234.948 362.067C234.948 367.145 238.26 370.584 243.149 370.584C246.901 370.584 247.833 369.956 255.577 362.213C263.249 354.54 263.948 353.511 263.948 349.887C263.948 344.84 260.784 341.583 255.884 341.586C252.913 341.587 251.263 342.754 243.698 350.203ZM211.348 382.414C206.017 386.282 197.075 396.23 196.356 399.093C195.008 404.465 201.211 410.488 206.68 409.115C208.101 408.758 212.387 405.455 216.204 401.775C226.717 391.64 228.139 387.621 223.025 382.507C219.351 378.833 216.316 378.809 211.348 382.414ZM239.448 380.739C236.262 382.481 234.948 384.714 234.948 388.382C234.948 391.266 236.075 392.961 242.198 399.287C246.186 403.406 250.734 407.444 252.306 408.261C257.831 411.133 263.948 407.095 263.948 400.576C263.948 397.328 263.015 396.033 255.077 388.265C245.986 379.369 243.841 378.336 239.448 380.739Z" fill="black"/>
</svg>
