<svg width="513" height="512" viewBox="0 0 513 512" fill="none" xmlns="http://www.w3.org/2000/svg">
<path fill-rule="evenodd" clip-rule="evenodd" d="M31.455 2.455C29.026 4.883 29 5.103 29 23.369V41.829L14.904 93.665C-0.645 150.843 -1.543 155.821 1.425 168.435C4.064 179.649 8.526 187.559 16.983 196.017C29.247 208.28 43.351 213.739 60 212.664C76.42 211.605 91.528 203.893 100.669 191.906C102.727 189.208 104.666 187 104.978 187C105.29 187 106.435 188.659 107.523 190.687C112.989 200.881 128.401 211.982 142 215.521C150.709 217.788 166.099 217.137 174.432 214.15C185.753 210.092 196.716 201.811 202.763 192.75C205.633 188.449 206.589 188.13 207.547 191.149C207.923 192.331 211.215 196.273 214.865 199.909C226.238 211.241 240.183 217.011 256.144 216.988C271.922 216.966 286.113 211.039 297.123 199.875C300.821 196.125 304.137 192.144 304.491 191.029C305.404 188.151 306.528 188.499 308.944 192.409C312.402 198.004 323.432 207.598 330.186 210.884C347.433 219.277 364.939 219.126 382.748 210.431C390.638 206.579 401.008 197.157 404.477 190.687C405.565 188.659 406.719 187 407.042 187C407.364 187 409.174 189.069 411.064 191.597C414.698 196.458 423.862 203.869 430.305 207.156C435.946 210.034 448.483 213.003 454.91 212.983C470.305 212.935 483.813 207.221 495.017 196.017C503.564 187.47 508.23 179.128 510.527 168.287C513.563 153.961 513.807 155.272 495.521 87.957L483 41.868V23.388C483 5.102 482.974 4.884 480.545 2.455L478.091 0H256H33.909L31.455 2.455ZM467 26V36H256H45V26V16H256H467V26ZM114.598 54.75C114.289 56.263 110.176 81.35 105.457 110.5C100.737 139.65 96.395 165.434 95.808 167.797C95.22 170.16 93.077 174.66 91.047 177.797C75.287 202.138 41.847 203.39 24.078 180.303C18.688 173.3 16.64 166.758 16.628 156.5C16.618 148.059 17.407 144.61 29.336 101C36.331 75.425 42.253 53.938 42.496 53.25C42.838 52.281 51.062 52 79.048 52H115.159L114.598 54.75ZM203.496 57.25C203.209 60.138 201.847 84.55 200.469 111.5C199.091 138.45 197.526 163.2 196.991 166.5C194.816 179.929 186.117 191.207 173.223 197.315C166.988 200.269 165.735 200.5 155.948 200.5C145.778 200.5 145.123 200.365 137.84 196.765C125.678 190.755 118.163 181.075 115.398 167.859C114.482 163.481 114.112 158.677 114.484 156C114.828 153.525 118.685 129.393 123.055 102.373C127.425 75.353 131 52.966 131 52.623C131 52.28 147.429 52 167.509 52H204.017L203.496 57.25ZM292.427 58.25C292.75 61.688 294.166 86.444 295.575 113.265C297.673 153.216 297.922 163.066 296.951 167.765C290.053 201.158 248.219 212.574 225.011 187.396C219.858 181.806 215.316 172.376 214.454 165.48C213.862 160.741 218.535 59.624 219.595 54.25L220.038 52H255.939H291.841L292.427 58.25ZM381 52.685C381 53.061 384.573 75.449 388.94 102.435C393.307 129.421 397.164 153.525 397.511 156C397.888 158.689 397.522 163.461 396.602 167.859C393.837 181.075 386.322 190.755 374.16 196.765C366.877 200.365 366.222 200.5 356.052 200.5C346.265 200.5 345.012 200.269 338.777 197.315C325.881 191.206 317.177 179.92 315.013 166.5C314.481 163.2 312.91 138.225 311.522 111C310.134 83.775 308.758 59.362 308.465 56.75L307.931 52H344.466C364.56 52 381 52.308 381 52.685ZM482.271 99.5C494.447 143.767 495.204 147.053 495.292 156C495.366 163.485 494.939 166.62 493.278 170.78C486.536 187.662 469.679 198.185 451.781 196.685C435.283 195.302 420.264 182.998 416.148 167.494C415.565 165.297 411.236 139.65 406.529 110.5C401.821 81.35 397.715 56.257 397.403 54.737L396.836 51.975L433.09 52.237L469.344 52.5L482.271 99.5ZM31.174 225.314L29 227.629V343.814V460H16.955C5.499 460 4.789 460.12 2.455 462.455C0.00399995 464.905 0 464.941 0 486C0 507.059 0.00399995 507.095 2.455 509.545L4.909 512H256H507.091L509.545 509.545C511.996 507.095 512 507.059 512 486C512 464.941 511.996 464.905 509.545 462.455C507.211 460.12 506.501 460 495.045 460H483V343.674V227.349L480.686 225.174C477.31 222.003 471.756 222.223 469.073 225.635C467.003 228.266 467 228.431 467 344.135V460H453.5H440V361.582C440 307.452 439.72 262.435 439.379 261.545C437.685 257.13 435.995 257 380.5 257C325.005 257 323.315 257.13 321.621 261.545C321.28 262.435 321 307.452 321 361.582V460H183.012H45.025L44.762 343.412L44.5 226.823L42.139 224.912C38.862 222.258 33.873 222.442 31.174 225.314ZM86.077 259.589L83 262.178V322.007C83 354.913 83.28 382.565 83.621 383.455C85.389 388.063 83.994 388 184.895 388H279.888L282.694 385.587L285.5 383.174L285.781 324.629C286.088 260.659 286.044 260.108 280.483 257.994C278.819 257.361 243.594 257 183.512 257H89.153L86.077 259.589ZM269.5 322.5V371.5L184.25 371.756L99 372.011V322.5V272.989L184.25 273.244L269.5 273.5V322.5ZM424 366.5V460H380.5H337V366.5V273H380.5H424V366.5ZM496 486V496H256H16V486V476H256H496V486Z" fill="black"/>
</svg>
