<svg width="463" height="512" viewBox="0 0 463 512" fill="none" xmlns="http://www.w3.org/2000/svg">
<path fill-rule="evenodd" clip-rule="evenodd" d="M175.4 1.87571C171.73 4.11371 171.627 4.4607 170.222 19.4027C169.092 31.4297 167.426 38.7977 163.489 49.1947C161.643 54.0657 161.097 56.9517 161.557 59.4017C162.961 66.8857 172.617 69.5627 178.173 64.0067L181.07 61.1097L185.647 69.7147C192.307 82.2347 200.257 92.7717 210.554 102.728C220.875 112.707 228.752 118.378 241.524 125.025L250.424 129.657L243.736 132.849C219.608 144.365 195.601 168.354 184.109 192.432L180.957 199.036L177.278 191.711C170.853 178.923 164.079 169.718 152.694 158.306C141.217 146.803 131.76 139.767 119.433 133.559L112.242 129.938L115.183 126.997C119.317 122.863 119.324 116.95 115.2 112.826C111.664 109.29 108.649 109.12 101.123 112.032C91.9062 115.599 82.1612 117.812 70.6232 118.959C55.5722 120.456 55.3202 120.531 53.0962 124.18C50.3472 128.689 50.6082 132.295 53.9562 136.042C56.7012 139.114 57.1282 139.237 67.7322 140.003C73.7512 140.438 80.9142 141.283 83.6492 141.88C123.323 150.544 155.589 180.699 166.6 219.403C168.008 224.353 169.756 234.216 170.485 241.32C171.719 253.343 171.998 254.399 174.522 256.57C176.25 258.056 178.509 258.903 180.745 258.903C188.461 258.903 190.599 255.412 191.462 241.403C194.736 188.286 239.231 143.353 291.623 140.258C306.667 139.369 310.123 137.332 310.123 129.355C310.123 126.259 309.502 124.669 307.595 122.877C305.43 120.843 303.361 120.328 293.176 119.29C272.113 117.144 256.633 111.924 240.884 101.658C211.867 82.7437 193.825 51.7937 191.234 16.4857C190.458 5.9177 190.331 5.47771 187.262 2.73571C183.515 -0.612295 179.909 -0.873295 175.4 1.87571ZM139.046 87.8257C131.47 95.4017 140.571 108.343 150.033 103.449C159.598 98.5027 156.334 84.9027 145.581 84.9027C142.922 84.9027 141.198 85.6737 139.046 87.8257ZM359.084 153.364C355.434 155.35 354.414 158.145 353.232 169.403C349.179 207.988 319.375 237.408 281.255 240.45C271.667 241.215 268.411 242.445 266.576 245.994C264.226 250.539 264.769 253.749 268.523 257.503C271.586 260.566 272.482 260.903 277.565 260.903C294.772 260.903 314.581 269.026 328.262 281.692C343.244 295.563 351.733 313.461 353.679 335.282C354.547 345.013 357.39 349.103 363.286 349.103C370.645 349.103 374.117 344.487 374.13 334.685C374.14 327.15 377.54 313.973 381.636 305.593C389.497 289.511 401.743 277.179 417.623 269.351C428.172 264.151 435.606 262.07 446.623 261.233C458.683 260.316 462.123 257.91 462.123 250.392C462.123 247.699 461.361 245.987 459.2 243.826C456.706 241.332 455.495 240.901 450.95 240.89C435.763 240.852 416.248 233.707 403.572 223.543C386.617 209.946 374.123 185.827 374.123 166.693C374.123 159.743 372.227 155.525 368.156 153.42C364.579 151.57 362.406 151.557 359.084 153.364ZM46.7842 185.515C43.6002 188.699 42.7882 192.598 43.2802 202.344C43.5592 207.874 44.1852 210.509 45.7012 212.539C49.5462 217.69 56.0502 218.067 60.7092 213.408C62.9722 211.145 63.1232 210.296 63.1232 199.872C63.1232 188.912 63.0802 188.706 60.2002 185.826C56.2572 181.884 50.5472 181.751 46.7842 185.515ZM366.929 211.214C374.575 224.761 388.589 238.994 401.873 246.702C405.311 248.697 408.11 250.571 408.093 250.866C408.077 251.161 405.313 252.978 401.951 254.903C389.105 262.259 375.593 275.827 367.749 289.247L363.876 295.875L360.517 290.296C355.05 281.219 350.743 275.824 342.965 268.313C336.469 262.04 332.084 258.761 321.8 252.484L318.977 250.761L324.642 247.349C338.974 238.719 351.379 226.551 359.123 213.528C361.598 209.366 363.693 205.947 363.778 205.932C363.863 205.916 365.281 208.293 366.929 211.214ZM7.45024 226.553C6.25524 226.811 4.11724 228.182 2.70024 229.599C-1.02776 233.327 -0.879761 239.054 3.04624 242.98C5.92624 245.86 6.13224 245.903 17.0922 245.903C27.5162 245.903 28.3652 245.752 30.6282 243.489C35.2942 238.823 34.9102 232.327 29.7382 228.464C27.5002 226.792 25.3432 226.373 18.3012 226.244C13.5282 226.156 8.64524 226.296 7.45024 226.553ZM80.4072 226.55C79.1882 226.816 77.0512 228.388 75.6572 230.045C72.0912 234.283 72.2382 239.172 76.0462 242.98C78.9232 245.857 79.1422 245.903 89.9902 245.903C99.9802 245.903 101.256 245.692 103.629 243.651C105.371 242.153 106.431 240.026 106.797 237.293C107.274 233.737 106.948 232.739 104.364 229.847C101.418 226.549 101.26 226.504 92.0012 226.287C86.8432 226.166 81.6262 226.284 80.4072 226.55ZM46.8892 258.821L43.6232 261.739V272.903V284.067L46.8892 286.985C51.3522 290.973 56.2092 290.971 60.2002 286.98C63.0812 284.099 63.1232 283.898 63.1232 272.903C63.1232 261.908 63.0812 261.707 60.2002 258.826C56.2092 254.835 51.3522 254.833 46.8892 258.821ZM121.483 316.363C118.533 318.43 117.368 322.183 116.735 331.665C114.981 357.944 97.2392 383.583 72.5992 395.444C64.3062 399.436 50.7602 402.886 43.3412 402.896C37.1482 402.904 31.7252 404.909 30.2032 407.753C29.6092 408.863 29.1232 411.561 29.1232 413.748C29.1232 419.953 32.7682 422.439 43.2022 423.35C61.8652 424.977 78.6822 432.091 91.1432 443.628C107.099 458.4 114.966 474.655 117.04 497.135C117.827 505.661 118.106 506.498 121.02 509.103C124.535 512.243 127.827 512.625 132.143 510.393C135.831 508.485 137.123 506.075 137.123 501.1C137.123 493.938 140.137 479.731 143.234 472.292C147.568 461.881 153.301 453.45 161.384 445.6C174.54 432.822 190.027 425.857 210.526 423.497C219.841 422.425 221.701 421.908 223.289 419.946C227.38 414.894 226.589 408.84 221.375 405.306C219.056 403.734 216.073 403.062 209.452 402.62C191.905 401.448 175.884 394.284 162.517 381.631C147.752 367.654 140.119 351.975 137.674 330.598C136.532 320.612 136.15 319.323 133.711 317.225C130.57 314.524 124.7 314.11 121.483 316.363ZM131.635 375.358C139.496 388.8 152.926 402.066 166.583 409.88L172.265 413.131L166.525 416.589C152.323 425.144 140.364 436.814 132.18 450.106L127.437 457.809L121.385 448.606C115.933 440.314 105.101 428.457 97.9112 422.91C96.4202 421.76 92.2102 419.071 88.5552 416.935L81.9102 413.052L86.2672 410.855C100.442 403.707 119.21 384.78 125.235 371.557C125.9 370.097 126.762 368.903 127.152 368.903C127.541 368.903 129.558 371.808 131.635 375.358ZM359.623 397.064C354.9 399.661 354.169 401.82 354.145 413.23C354.123 423.876 354.172 424.106 357.046 426.98C362.118 432.052 370.047 430.723 372.708 424.355C374.548 419.95 374.544 406.847 372.702 402.437C370.497 397.161 364.172 394.562 359.623 397.064ZM315.233 441.252C309.324 444.641 308.552 451.532 313.523 456.503C316.921 459.901 316.93 459.903 326.589 459.903C331.905 459.903 337.237 459.4 338.439 458.786C344.411 455.732 345.995 448.192 341.712 443.209C339.377 440.493 338.954 440.395 328.462 440.142C320.704 439.956 316.944 440.271 315.233 441.252ZM386.396 443.43C383.268 446.558 382.937 447.376 383.462 450.68C383.841 453.064 385.151 455.392 387.104 457.153C389.982 459.747 390.694 459.903 399.688 459.903C413.188 459.903 417.123 457.53 417.123 449.392C417.123 446.699 416.361 444.987 414.2 442.826C411.334 439.96 411.067 439.903 400.6 439.903H389.923L386.396 443.43ZM361.45 469.599C360.255 469.831 358.117 471.182 356.7 472.599C354.237 475.062 354.123 475.671 354.123 486.403C354.123 497.089 354.245 497.752 356.66 500.168C360.048 503.555 363.366 504.246 367.651 502.456C372.357 500.489 374.123 496.11 374.123 486.403C374.123 476.726 372.354 472.315 367.691 470.367C365.764 469.562 364.06 468.964 363.905 469.039C363.75 469.114 362.645 469.366 361.45 469.599Z" fill="black"/>
</svg>
