<svg width="448" height="374" viewBox="0 0 448 374" fill="none" xmlns="http://www.w3.org/2000/svg">
<path fill-rule="evenodd" clip-rule="evenodd" d="M128.317 0.584452C124.866 1.25545 3.698 68.6795 1.75 71.0135C0.788 72.1655 0 73.9855 0 75.0555C0 78.9305 36.038 175.337 38.159 177.137C39.294 178.099 41.546 178.887 43.164 178.887C44.783 178.887 55.509 176.187 67 172.887C78.491 169.587 88.367 166.887 88.947 166.887C89.678 166.887 90 197.77 90 267.776C90 365.621 90.058 368.737 91.912 371.026L93.823 373.387H224.5H355.177L357.088 371.026C358.942 368.737 359 365.621 359 267.776C359 212.287 359.249 166.887 359.553 166.887C359.858 166.887 369.509 169.587 381 172.887C392.491 176.187 403.217 178.887 404.836 178.887C406.454 178.887 408.707 178.1 409.842 177.137C411.997 175.31 448 78.7895 448 74.8405C448 71.6895 444.528 68.9255 431.5 61.7075C424.9 58.0515 397.45 42.7594 370.5 27.7264L321.5 0.39345L297.797 0.0904566C272.087 -0.238543 268.527 0.358451 267.596 5.15545C267.358 6.38345 266.649 10.5765 266.02 14.4735C264.509 23.8425 261.172 30.7675 255.051 37.2395C239.086 54.1205 209.917 54.1235 193.955 37.2465C187.53 30.4525 184.101 22.9535 182.424 12.0235C181.694 7.27346 181.076 3.28645 181.049 3.16345C181.022 3.03945 179.672 2.25245 178.05 1.41345C175.638 0.166455 171.028 -0.0875448 152.8 0.0234552C140.535 0.0984552 129.518 0.350452 128.317 0.584452ZM167.933 21.6375C171.398 37.5615 182.816 52.3234 197 59.2204C208.276 64.7024 215.611 66.2405 227.5 65.6125C253.797 64.2245 273.325 48.8365 280.226 24.0645L282.5 15.9025L299.103 15.8955L315.705 15.8875L372.603 47.4185C403.896 64.7605 429.456 79.4985 429.403 80.1685C429.349 80.8385 422.669 99.4205 414.557 121.461L399.809 161.535L375.4 154.659C353.398 148.46 350.724 147.91 348.275 149.085C346.781 149.801 344.989 151.512 344.294 152.887C343.3 154.853 343.026 177.025 343.015 256.637L343 357.887H224.518H106.037L105.768 255.3L105.5 152.713L102.694 150.3C101.151 148.973 99.126 147.89 98.194 147.895C97.262 147.899 85.626 150.972 72.335 154.723L48.17 161.544L33.463 121.652C25.375 99.7115 18.699 81.1335 18.628 80.3665C18.549 79.5105 40.275 66.8565 75 47.5325L131.5 16.0915L149.091 15.9895L166.682 15.8875L167.933 21.6375ZM298.519 157.137C296.459 158.925 295.537 161.296 294.032 168.682C291.094 183.097 286.324 189.618 275.057 194.617C268.887 197.355 267.077 199.246 267.032 203.002C266.987 206.727 270.217 210.336 274.837 211.72C279.684 213.172 288.155 220.587 290.42 225.36C291.335 227.289 292.993 233.029 294.103 238.115C296.467 248.95 297.84 250.887 303.155 250.887C308.645 250.887 310.365 248.635 312.321 238.884C315.247 224.295 320.008 217.699 332 211.624C342.586 206.261 342.497 199.769 331.768 194.655C325.245 191.546 318.979 185.736 316.158 180.178C315.1 178.093 313.512 172.882 312.631 168.597C310.701 159.221 309.655 157.086 306.374 155.839C302.678 154.434 301.388 154.647 298.519 157.137ZM313.5 202.86C313.5 203.215 311.249 206.031 308.498 209.118L303.495 214.731L298.195 208.828L292.895 202.926L296.444 199.377C298.396 197.425 300.714 194.728 301.594 193.384L303.195 190.94L308.348 196.577C311.181 199.678 313.5 202.505 313.5 202.86ZM242.984 218.699C241.195 220.148 240.272 223.004 238.381 232.949C236.791 241.313 234.987 247.424 232.873 251.608C228.78 259.71 219.068 269.1 211.305 272.46C201.616 276.654 200.563 277.346 199.57 280.168C198.297 283.788 199.837 287.985 203.013 289.552C204.381 290.226 208.548 292.134 212.274 293.791C220.4 297.406 228.565 305.122 232.518 312.923C234.102 316.049 236.415 323.945 238.056 331.829C241.103 346.466 242.515 348.887 248 348.887C253.402 348.887 254.974 346.34 257.588 333.356C260.747 317.659 264.924 309.024 272.955 301.589C276.227 298.559 281.514 294.882 284.702 293.416C294.951 288.706 295.458 288.368 296.43 285.606C298.279 280.348 296.296 277.808 286.608 273.025C269.921 264.787 262.194 253.931 257.631 232.313C255.714 223.233 254.6 219.982 252.947 218.643C250.15 216.378 245.82 216.402 242.984 218.699ZM404.229 252.556C402.206 253.37 400.256 257.962 399.007 264.85C396.791 277.068 391.07 284.814 381.17 289.002C375.59 291.362 374 293.222 374 297.387C374 301.604 375.594 303.414 381.5 305.904C391.459 310.101 396.174 316.618 398.913 329.972C401.006 340.18 402.911 342.887 408 342.887C412.947 342.887 414.919 340.182 417.033 330.497C418.101 325.607 420.135 319.626 421.554 317.205C424.345 312.442 430.266 307.605 436.279 305.174C440.401 303.508 442 301.373 442 297.535C442 293.178 440.934 291.962 433.868 288.248C423.518 282.809 419.971 277.736 416.997 264.111C415.649 257.939 414.461 254.875 412.935 253.637C410.87 251.961 406.925 251.471 404.229 252.556ZM262.844 276.084L270.192 283.064L267.846 284.623C263.564 287.468 254.255 297.731 251.276 302.891L248.34 307.977L244.717 302.182C240.719 295.786 236.528 291.043 230.578 286.183L226.657 282.98L233.578 276.542C237.385 273.002 242.275 267.177 244.445 263.598L248.389 257.09L251.943 263.097C253.897 266.401 258.803 272.245 262.844 276.084ZM413.308 301.638C410.939 304.076 409 306.565 409 307.169C409 307.773 406.814 305.828 404.143 302.845L399.286 297.422L403.772 292.226L408.259 287.029L412.937 292.117L417.616 297.205L413.308 301.638Z" fill="black"/>
</svg>
