<svg width="496" height="248" viewBox="0 0 496 248" fill="none" xmlns="http://www.w3.org/2000/svg">
<path fill-rule="evenodd" clip-rule="evenodd" d="M291.646 1.43245C290.078 2.28345 288.66 4.08245 288.328 5.64245C286.199 15.6394 280.179 27.4224 274.45 32.8044C273.058 34.1114 268.659 36.7994 264.675 38.7754C256.67 42.7464 254.706 45.5724 256.445 50.6174C257.151 52.6664 259.112 54.1895 264.141 56.5945C275.776 62.1585 283.569 72.2125 287.267 86.4305C288.976 93.0015 291.593 95.8674 295.883 95.8674C300.173 95.8674 302.79 93.0015 304.499 86.4305C308.197 72.2125 315.99 62.1585 327.625 56.5945C335.11 53.0155 337.047 50.1254 335.321 45.1174C334.615 43.0684 332.654 41.5454 327.625 39.1404C315.1 33.1514 307.088 22.0424 303.458 5.63544C303.094 3.99044 301.686 2.29944 299.918 1.38544C296.324 -0.472557 295.145 -0.466552 291.646 1.43245ZM298.016 34.1174C298.678 35.3544 301.688 38.9554 304.704 42.1174L310.187 47.8674L304.771 53.6174C301.793 56.7794 298.574 60.4924 297.619 61.8674L295.883 64.3674L294.147 61.8674C293.192 60.4924 289.973 56.7794 286.995 53.6174L281.579 47.8674L287.062 42.1174C290.078 38.9554 293.088 35.3544 293.75 34.1174C294.412 32.8804 295.372 31.8674 295.883 31.8674C296.394 31.8674 297.354 32.8804 298.016 34.1174ZM178.338 58.3224C176.988 59.6724 175.883 61.6705 175.883 62.7625C175.883 65.7785 171.045 78.7064 167.704 84.6164C161.174 96.1694 148.984 106.535 136.633 111.038C129.299 113.712 127.181 116.468 128.473 121.652C129.443 125.541 129.281 125.427 141.883 131.141C156.241 137.651 167.928 151.522 173.284 168.408C174.847 173.335 176.647 178.486 177.285 179.854C179.68 184.988 188.041 184.988 190.524 179.854C191.185 178.486 192.912 173.542 194.361 168.867C199.617 151.909 211.051 138.186 225.629 131.338C229.894 129.335 234.502 127.158 235.87 126.5C241.004 124.033 241.004 115.701 235.87 113.234C234.502 112.576 229.916 110.41 225.678 108.421C209.848 100.987 198.296 86.3154 192.962 66.8674C191.715 62.3194 190.07 58.6784 188.783 57.6174C185.736 55.1034 181.253 55.4064 178.338 58.3224ZM186.735 93.2944C190.414 100.229 199.088 110.129 205.717 114.958C209.046 117.383 211.77 119.592 211.77 119.867C211.77 120.142 209.046 122.351 205.717 124.776C199.088 129.605 190.414 139.505 186.735 146.44C185.443 148.875 184.16 150.867 183.883 150.867C183.606 150.867 182.323 148.875 181.031 146.44C177.352 139.505 168.678 129.605 162.049 124.776C158.72 122.351 155.996 120.142 155.996 119.867C155.996 119.592 158.72 117.383 162.049 114.958C168.678 110.129 177.352 100.229 181.031 93.2944C182.323 90.8594 183.606 88.8674 183.883 88.8674C184.16 88.8674 185.443 90.8594 186.735 93.2944ZM83.1133 121.617C82.0173 122.58 62.9793 148.792 40.8043 179.867C12.5513 219.462 0.36727 237.322 0.0832701 239.56C-0.22573 241.989 0.289271 243.364 2.23527 245.31L4.79227 247.867H247.883H490.974L493.428 245.412C496.352 242.489 496.536 239.446 494.038 235.367C490.091 228.924 413.491 122.298 411.984 121.15C410.757 120.216 392.317 119.923 333.133 119.899L255.883 119.867V127.867V135.867H329.78H403.677L437.779 183.617L471.882 231.367L359.882 231.621C298.283 231.761 197.451 231.761 135.812 231.621L23.7413 231.367L57.8513 183.617L91.9613 135.867H101.922H111.883V127.867V119.867H98.4943C87.1683 119.867 84.7983 120.137 83.1133 121.617Z" fill="black"/>
</svg>
