<svg width="496" height="496" viewBox="0 0 496 496" fill="none" xmlns="http://www.w3.org/2000/svg">
<path fill-rule="evenodd" clip-rule="evenodd" d="M436.106 1.04045C433.417 2.34245 432.147 5.11945 430.77 12.7185C429.55 19.4435 426.316 29.8165 424.019 34.3705C419.446 43.4375 410.752 50.0805 398.57 53.8175C386.932 57.3875 385.982 57.8765 384.706 60.9565C383.761 63.2395 383.765 64.5115 384.724 66.8275C386.001 69.9095 387.211 70.5105 400.851 74.8415C417.59 80.1555 425.049 89.6665 430.237 112.306C433.179 125.144 433.317 125.451 436.814 126.9C439.103 127.848 440.378 127.849 442.656 126.906C445.948 125.542 447.057 123.173 448.751 113.888C449.402 110.322 450.994 104.591 452.288 101.15C458.199 85.4495 464.746 79.0805 479.742 74.4445C491.868 70.6965 493.5 69.8675 494.76 66.8275C495.719 64.5115 495.723 63.2395 494.778 60.9565C493.502 57.8765 492.552 57.3875 480.914 53.8175C472.391 51.2035 463.115 45.5375 459.415 40.6865C455.436 35.4695 452.118 27.3235 449.714 16.8705C446.787 4.14345 446.031 2.32345 443.127 1.00045C440.178 -0.343549 438.949 -0.336549 436.106 1.04045ZM440.742 39.9185C440.742 41.6865 447.231 51.1785 450.835 54.6835C452.709 56.5055 456.154 59.2055 458.49 60.6835C460.827 62.1615 462.739 63.6055 462.74 63.8935C462.741 64.1805 461.153 65.2715 459.21 66.3175C453.941 69.1555 446.316 77.2415 443.092 83.4105C441.525 86.4105 440.017 88.8655 439.742 88.8655C439.467 88.8655 437.959 86.4105 436.392 83.4105C433.168 77.2415 425.543 69.1555 420.274 66.3175C418.331 65.2715 416.743 64.1805 416.744 63.8935C416.745 63.6055 418.657 62.1615 420.994 60.6835C423.33 59.2055 426.775 56.5055 428.649 54.6835C432.253 51.1785 438.742 41.6865 438.742 39.9185C438.742 39.3425 439.192 38.8705 439.742 38.8705C440.292 38.8705 440.742 39.3425 440.742 39.9185ZM107.486 121.12C106.585 121.808 90.9738 142.843 72.7948 167.866C49.3168 200.182 39.7418 214.123 39.7418 215.99C39.7418 218.003 62.5428 246.18 137.255 336.494C196.558 408.18 235.743 454.74 237.255 455.313C238.813 455.904 240.677 455.904 242.244 455.313C243.781 454.734 282.332 408.936 342.244 336.513C417.341 245.735 439.742 218.048 439.742 216.009C439.742 214.117 430.312 200.381 406.689 167.866C388.51 142.843 372.899 121.808 371.998 121.12C369.598 119.289 109.886 119.289 107.486 121.12ZM191.676 168.943C164.692 198.549 161.405 201.825 160.313 200.193C158.41 197.347 125.742 137.123 125.742 136.46C125.742 136.136 147.359 135.87 173.78 135.87H221.819L191.676 168.943ZM353.742 136.46C353.742 137.123 321.074 197.347 319.171 200.193C318.079 201.825 314.792 198.549 287.808 168.943L257.665 135.87H305.704C332.125 135.87 353.742 136.136 353.742 136.46ZM271.098 174.12L301.804 207.87H239.749H177.693L208.467 173.933C225.393 155.268 239.501 140.08 239.817 140.183C240.133 140.286 254.21 155.558 271.098 174.12ZM128.707 175.45C138.171 192.82 145.721 207.225 145.484 207.462C145.247 207.699 126.756 207.775 104.394 207.631L63.7348 207.37L86.8268 175.62C99.5268 158.157 110.274 143.87 110.709 143.87C111.144 143.87 119.243 158.081 128.707 175.45ZM392.657 175.62L415.749 207.37L375.09 207.631C352.728 207.775 334.237 207.699 334 207.462C333.385 206.846 367.822 143.87 368.775 143.87C369.21 143.87 379.957 158.157 392.657 175.62ZM178.742 295.102C192.217 334.266 206.503 375.758 210.488 387.308C215.539 401.947 217.16 407.71 215.838 406.338C214.795 405.256 181.216 364.77 141.218 316.37C101.22 267.97 67.5708 227.358 66.4438 226.12L64.3928 223.87L109.318 223.882L154.242 223.895L178.742 295.102ZM303.368 239.12C300.442 247.507 285.061 292.058 269.189 338.12C253.316 384.183 240.065 421.87 239.742 421.87C239.419 421.87 226.168 384.183 210.295 338.12C194.423 292.058 179.042 247.507 176.116 239.12L170.795 223.87H239.742H308.689L303.368 239.12ZM410.538 229.12C408.092 232.007 374.677 272.395 336.282 318.87C297.887 365.345 265.409 404.484 264.109 405.846C262.121 407.928 262.897 404.982 268.993 387.315C272.98 375.762 287.267 334.266 300.742 295.102L325.242 223.895L370.113 223.882L414.985 223.87L410.538 229.12ZM60.0628 353.059C57.3978 354.347 56.2428 357.119 54.2448 367.023C48.6158 394.925 38.1808 407.078 13.7148 414.224C2.12976 417.608 2.08276 417.633 0.71176 420.942C-0.24024 423.241 -0.23824 424.505 0.72376 426.827C2.01176 429.936 3.47576 430.653 17.1558 434.871C30.7658 439.067 38.5128 444.35 44.2788 453.37C48.2398 459.566 52.1108 470.151 54.1998 480.497C56.3558 491.18 57.4208 493.494 60.8278 494.906C63.1038 495.848 64.3798 495.848 66.6558 494.906C70.0668 493.493 71.1268 491.184 73.2978 480.431C78.7548 453.405 88.2988 441.662 110.328 434.871C124.008 430.653 125.472 429.936 126.76 426.827C127.726 424.494 127.726 423.246 126.76 420.913C125.472 417.804 124.008 417.087 110.328 412.869C88.2988 406.078 78.7548 394.335 73.2978 367.309C71.1898 356.87 70.1068 354.357 67.1268 353C64.1698 351.652 62.9518 351.662 60.0628 353.059ZM436.063 361.059C433.488 362.304 432.594 364.476 429.892 376.057C425.576 394.558 419.123 402.002 403.242 406.807C395.464 409.16 393.901 410.072 392.706 412.956C390.363 418.614 393.6 422.527 402.242 424.479C406.1 425.35 414.354 429.477 418.389 432.552C422.99 436.058 428.614 447.511 430.737 457.693C433.07 468.888 433.332 469.458 436.814 470.9C439.103 471.848 440.378 471.849 442.656 470.906C445.852 469.582 447.06 467.177 448.701 458.87C450.468 449.927 453.658 441.286 456.786 436.968C460.021 432.502 467.563 427.736 475.242 425.303C484.315 422.429 485.559 421.726 486.778 418.784C487.72 416.508 487.72 415.232 486.778 412.956C485.559 410.014 484.315 409.311 475.242 406.437C467.563 404.004 460.021 399.238 456.786 394.772C453.658 390.454 450.468 381.813 448.701 372.87C447.115 364.839 445.906 362.266 443.127 361C440.17 359.652 438.952 359.662 436.063 361.059ZM66.4178 397.12C69.9068 404.267 76.4218 412.13 82.9898 417.12C86.4288 419.732 90.0288 422.125 90.9918 422.437C91.9548 422.749 92.7418 423.394 92.7418 423.87C92.7418 424.346 91.9548 424.991 90.9918 425.303C90.0288 425.615 86.4288 428.008 82.9898 430.62C76.3178 435.689 70.0918 443.272 66.0438 451.26L63.5558 456.171L61.6318 451.874C56.9418 441.397 48.8018 432.456 38.4748 426.438L33.7078 423.66L39.2218 420.34C42.2548 418.513 46.0868 415.963 47.7368 414.671C51.4878 411.735 58.3278 402.729 61.0658 397.12C62.2068 394.783 63.4108 392.87 63.7418 392.87C64.0728 392.87 65.2768 394.783 66.4178 397.12ZM442.183 401.391C444.076 404.906 451.489 412.447 455.253 414.687C457.238 415.868 457.238 415.872 455.253 417.053C451.489 419.293 444.076 426.834 442.183 430.349C441.14 432.286 439.982 433.87 439.61 433.87C439.237 433.87 437.789 431.92 436.392 429.536C433.947 425.363 428.058 419.342 424.129 416.996C422.291 415.899 422.294 415.839 424.231 414.687C427.995 412.447 435.408 404.906 437.301 401.391C438.344 399.454 439.442 397.87 439.742 397.87C440.042 397.87 441.14 399.454 442.183 401.391Z" fill="black"/>
</svg>
